<?xml version="1.0" encoding="utf-8"?>
<!DOCTYPE svg PUBLIC "-//W3C//DTD SVG 1.1//EN" "http://www.w3.org/Graphics/SVG/1.1/DTD/svg11.dtd">
<svg xmlns="http://www.w3.org/2000/svg" xmlns:xlink="http://www.w3.org/1999/xlink" version="1.1" baseProfile="full" width="328.664" height="174.993" viewBox="0 0 328.66 174.99" enable-background="new 0 0 328.66 174.99" xml:space="preserve">
	<linearGradient id="SVGID_Fill1_" gradientUnits="objectBoundingBox" x1="0.992895" y1="0.59795" x2="1.79378" y2="0.59795" gradientTransform="rotate(180.000000 0.992895 0.597950)">
		<stop offset="0" stop-color="#0085D4" stop-opacity="1"/>
		<stop offset="1" stop-color="#00568A" stop-opacity="1"/>
	</linearGradient>
	<path fill="url(#SVGID_Fill1_)" stroke-width="249.333" stroke-linecap="square" stroke-linejoin="round" d="M 7.4039,3.8147e-005L 77.737,3.8147e-005C 121.185,3.8147e-005 155.591,39.7675 155.591,87.5363C 155.591,135.305 121.185,174.993 77.737,174.993C 74.7765,174.993 72.136,173.232 70.9357,170.512L 0.602631,10.482C -1.55777,5.60099 2.04288,3.8147e-005 7.4039,3.8147e-005 Z M 18.926,14.9628L 82.5379,159.79C 114.624,156.909 140.549,126.264 140.549,87.5364C 140.549,46.8888 111.983,14.9628 77.737,14.9628L 18.926,14.9628 Z M 237.767,0.000160217C 240.807,0.000160217 243.448,1.76041 244.648,4.48087L 284.879,96.018L 321.222,96.018C 325.303,96.018 328.664,99.3786 328.664,103.539L 328.664,167.551C 328.664,171.712 325.303,174.993 321.222,174.993L 308.1,174.993L 304.339,174.993L 237.767,174.993C 194.319,174.993 159.992,135.305 159.992,87.5364C 159.992,39.7675 194.319,0.000160217 237.767,0.000160217 Z M 233.046,15.283C 200.96,18.0835 174.955,48.8092 174.955,87.5365C 174.955,128.184 203.6,160.03 237.767,160.03L 296.658,160.03L 233.046,15.283 Z M 313.701,110.981L 291.455,110.981L 313.012,160.03L 313.701,160.03L 313.701,110.981 Z "/>
</svg>
