<?xml version="1.0" encoding="utf-8"?>
<!DOCTYPE svg PUBLIC "-//W3C//DTD SVG 1.1//EN" "http://www.w3.org/Graphics/SVG/1.1/DTD/svg11.dtd">
<svg xmlns="http://www.w3.org/2000/svg" xmlns:xlink="http://www.w3.org/1999/xlink" version="1.1" baseProfile="full" width="128" height="128" viewBox="0 0 128.00 128.00" enable-background="new 0 0 128.00 128.00" xml:space="preserve">
	<ellipse fill="#706CF5" fill-opacity="1" stroke-width="0.2" stroke-linejoin="round" cx="64" cy="63.9999" rx="64" ry="64"/>
	<g>
		<path fill="#FFFFFF" fill-opacity="1" stroke-width="0.2" stroke-linejoin="round" d="M 79.9271,88.1252C 75.3596,91.1473 69.8837,92.907 63.9968,92.907C 52.6642,92.907 42.8547,86.3857 38.1162,76.8911C 35.7231,75.6297 33.5299,74.313 31.5704,72.9659C 35.4945,87.1891 48.5258,97.6345 63.9968,97.6345C 73.1835,97.6345 81.51,93.9515 87.5803,87.9814C 85.2101,88.1794 82.6445,88.2288 79.9271,88.1252 Z "/>
		<path fill="#FFFFFF" fill-opacity="1" stroke-width="0.2" stroke-linejoin="round" d="M 35.7133,70C 33.7685,68.8087 32.0033,67.5839 30.4426,66.3439C 24.6536,61.7444 21.6786,56.9361 22.7897,52.8539C 23.8978,48.7833 28.8743,46.1494 36.1621,45.1124C 42.2136,36.2117 52.4225,30.3654 63.9968,30.3654C 81.8339,30.3654 96.4279,44.2499 97.5607,61.8007C 103.348,66.3995 106.321,71.2068 105.21,75.2881C 104.096,79.3801 99.0735,82.0202 91.7233,83.0458C 89.7463,83.3217 87.6011,83.4807 85.3182,83.5198C 77.8764,83.6474 68.9726,82.5002 59.6727,79.9689C 50.3474,77.4306 42.0707,73.8943 35.7133,70 Z M 89.0496,78.4311C 91.4731,74.2327 92.8717,69.3683 92.9033,64.1799L 92.9038,64.0001C 92.9038,48.0351 79.9617,35.093 63.9968,35.093C 53.3823,35.093 44.1042,40.8138 39.0773,49.3403C 36.547,53.6324 35.0939,58.6353 35.0897,63.9774C 41.1116,68.0074 50.2121,71.9813 60.7391,74.8467C 71.6051,77.8044 81.7596,78.9736 89.0496,78.4311 Z M 94.8261,77.4689C 97.7253,76.6179 99.5944,75.2722 100.092,73.4442C 100.598,71.5838 99.6273,69.4343 97.4822,67.189L 97.4373,67.6348C 97.0652,71.0974 96.1677,74.4025 94.8261,77.4689 Z M 33.4296,49.9472L 33.6731,49.43C 30.2532,50.2715 28.0699,51.6935 27.526,53.6922C 26.9877,55.6697 28.1191,57.9741 30.5554,60.373C 30.9507,56.6868 31.9414,53.1789 33.4296,49.9472 Z "/>
	</g>
</svg>
