<?xml version="1.0" encoding="utf-8"?>
<!DOCTYPE svg PUBLIC "-//W3C//DTD SVG 1.1//EN" "http://www.w3.org/Graphics/SVG/1.1/DTD/svg11.dtd">
<svg xmlns="http://www.w3.org/2000/svg" xmlns:xlink="http://www.w3.org/1999/xlink" version="1.1" baseProfile="full" width="288.014" height="303.067" viewBox="0 0 288.01 303.07" enable-background="new 0 0 288.01 303.07" xml:space="preserve">
	<g>
		<path fill="#C2C2C2" fill-opacity="1" stroke-width="0.2" stroke-linejoin="round" d="M 288.014,222.867C 288.014,231.168 286.69,238.68 284.041,245.4C 281.393,252.121 277.661,257.841 272.846,262.561C 268.031,267.282 262.227,270.927 255.435,273.496C 248.644,276.066 241.097,277.351 232.795,277.351L 187.799,277.351L 187.799,171.063L 231.823,171.063C 238.986,171.063 245.347,171.668 250.905,172.878C 256.463,174.087 261.33,175.803 265.504,178.025C 269.679,180.246 273.19,182.915 276.036,186.03C 278.882,189.145 281.195,192.628 282.974,196.479C 284.753,200.329 286.038,204.48 286.828,208.931C 287.619,213.383 288.014,218.028 288.014,222.867 Z M 253.977,223.175C 253.977,219.712 253.459,216.348 252.423,213.082C 251.387,209.817 249.806,206.927 247.679,204.413C 245.552,201.898 242.86,199.886 239.603,198.376C 236.345,196.866 232.495,196.111 228.051,196.111L 219.82,196.111L 219.82,252.303L 228.787,252.303C 232.692,252.303 236.199,251.599 239.306,250.192C 242.413,248.784 245.054,246.808 247.228,244.262C 249.403,241.716 251.071,238.652 252.233,235.07C 253.396,231.489 253.977,227.524 253.977,223.175 Z "/>
		<path fill="#8A328E" fill-opacity="1" stroke-width="0.2" stroke-linejoin="round" d="M 24.8455,145.347L 142.922,145.347L 155.303,145.347L 175.339,145.347L 152.073,275.337L 68.7692,303.067L 0,277.388L 6.54285,241.512L 34.9978,241.512L 32.3091,256.255L 75.4032,272.075L 122.939,256.997L 128.824,224.116L 11.5114,224.116L 16.5792,194.071L 134.201,194.071L 137.544,175.392L 19.7775,175.392L 24.8455,145.347 Z "/>
	</g>
	<g>
		<path fill="#C2C2C2" fill-opacity="1" stroke-width="0.2" stroke-linejoin="round" d="M 85.5264,75.9028C 85.5264,78.3222 85.2299,80.8523 84.6369,83.4931C 84.0439,86.1339 83.0319,88.7154 81.6008,91.2375C 80.1697,93.7597 78.2682,96.1435 75.8962,98.389C 73.5243,100.634 70.5475,102.623 66.9658,104.354C 63.3842,106.086 59.1344,107.446 54.2166,108.434C 49.2986,109.423 43.606,109.917 37.1384,109.917C 33.6754,109.917 30.3625,109.743 27.2,109.395C 24.0372,109.047 21.096,108.604 18.3762,108.067C 15.6563,107.529 13.1855,106.924 10.9639,106.252C 8.74207,105.58 6.79309,104.928 5.11694,104.295L 5.11694,75.1438C 7.09357,76.4879 9.34302,77.8004 11.8651,79.0812C 14.3873,80.3621 17.0558,81.5244 19.8705,82.568C 22.6853,83.6117 25.5989,84.4537 28.6112,85.0941C 31.6236,85.7346 34.6162,86.0548 37.5891,86.0548C 40.0559,86.0548 42.0563,85.8334 43.5901,85.3907C 45.124,84.9478 46.3456,84.3668 47.2549,83.6472C 48.1641,82.9278 48.7926,82.1371 49.1405,81.2753C 49.4884,80.4135 49.6624,79.5319 49.6624,78.6306C 49.6624,77.0018 49.2156,75.5944 48.3223,74.4085C 47.4288,73.2225 46.1914,72.1472 44.6101,71.1826C 43.0288,70.218 41.1273,69.3048 38.9055,68.443C 36.6838,67.5811 34.213,66.6838 31.4932,65.7508C 26.4646,63.9639 22.1832,61.9082 18.649,59.5837C 15.1147,57.2592 12.2209,54.7528 9.96759,52.0646C 7.71423,49.3764 6.09338,46.4984 5.10504,43.4306C 4.11676,40.3629 3.62262,37.1766 3.62262,33.8716C 3.62262,28.6375 4.70978,23.9292 6.88403,19.7466C 9.05835,15.5641 12.134,12.0061 16.111,9.07278C 20.088,6.13947 24.8596,3.89401 30.4258,2.3364C 35.9919,0.778839 42.1827,3.05176e-005 48.9982,3.05176e-005C 52.7459,3.05176e-005 56.1892,0.13446 59.3281,0.403259C 62.467,0.672089 65.2975,1.00418 67.8197,1.39951C 70.3419,1.79483 72.5913,2.24155 74.5679,2.73965C 76.5446,3.23776 78.3235,3.68448 79.9048,4.0798L 79.9048,31.1202C 78.2286,30.2821 76.3271,29.4321 74.2003,28.5703C 72.0735,27.7085 69.7727,26.9178 67.2979,26.1983C 64.8231,25.4789 62.2179,24.8977 59.4823,24.4549C 56.7466,24.0122 53.9161,23.7908 50.9907,23.7908C 47.0848,23.7908 43.9341,24.4589 41.5384,25.7951C 39.1427,27.1313 37.9449,28.9538 37.9449,31.2625C 37.9449,32.4485 38.2058,33.5119 38.7276,34.4528C 39.2495,35.3936 40.0797,36.2713 41.2181,37.0856C 42.3568,37.9 43.8748,38.7421 45.7723,39.6118C 47.6699,40.4815 50.0023,41.4303 52.7697,42.4582C 57.5135,44.245 61.8859,46.1624 65.8866,48.2101C 69.8873,50.258 73.3464,52.6062 76.2639,55.2549C 79.1815,57.9036 81.4546,60.9081 83.0833,64.2683C 84.7121,67.6286 85.5264,71.5068 85.5264,75.9028 Z "/>
		<path fill="#C2C2C2" fill-opacity="1" stroke-width="0.2" stroke-linejoin="round" d="M 159.081,108.067L 145.893,78.9389C 145.055,77.1046 144.501,75.3098 144.232,73.5545C 143.964,71.7993 143.75,70.3524 143.592,69.2138L 143.307,69.2138C 143.007,70.3998 142.659,71.9574 142.264,73.8866C 141.868,75.8158 141.299,77.6976 140.556,79.5319L 128.245,108.067L 90.1518,108.067L 122.031,55.077L 93.0456,1.77899L 131.732,1.77899L 142.05,29.863C 142.73,31.7448 143.268,33.5988 143.663,35.4253C 144.059,37.2517 144.383,38.8607 144.636,40.2522L 144.92,40.2522C 145.031,39.6513 145.158,38.92 145.3,38.0582C 145.442,37.1964 145.64,36.2713 145.893,35.2829C 146.146,34.2946 146.419,33.3063 146.711,32.318C 147.004,31.3297 147.324,30.4639 147.672,29.7207L 159.674,1.77899L 195.325,1.77899L 165.461,54.484L 196.748,108.067L 159.081,108.067 Z "/>
		<path fill="#C2C2C2" fill-opacity="1" stroke-width="0.2" stroke-linejoin="round" d="M 284.392,75.9028C 284.392,78.3222 284.095,80.8523 283.502,83.4931C 282.909,86.1339 281.897,88.7154 280.466,91.2375C 279.035,93.7597 277.133,96.1435 274.761,98.389C 272.39,100.634 269.413,102.623 265.831,104.354C 262.249,106.086 258,107.446 253.082,108.434C 248.164,109.423 242.471,109.917 236.004,109.917C 232.541,109.917 229.228,109.743 226.065,109.395C 222.903,109.047 219.961,108.604 217.241,108.067C 214.522,107.529 212.051,106.924 209.829,106.252C 207.607,105.58 205.658,104.928 203.982,104.295L 203.982,75.1438C 205.959,76.4879 208.208,77.8004 210.73,79.0812C 213.253,80.3621 215.921,81.5244 218.736,82.568C 221.55,83.6117 224.464,84.4537 227.477,85.0941C 230.489,85.7346 233.481,86.0548 236.454,86.0548C 238.921,86.0548 240.922,85.8334 242.455,85.3907C 243.989,84.9478 245.211,84.3668 246.12,83.6472C 247.029,82.9278 247.658,82.1371 248.006,81.2753C 248.354,80.4135 248.528,79.5319 248.528,78.6306C 248.528,77.0018 248.081,75.5944 247.187,74.4085C 246.294,73.2225 245.057,72.1472 243.475,71.1826C 241.894,70.218 239.992,69.3048 237.771,68.443C 235.549,67.5811 233.078,66.6838 230.358,65.7508C 225.33,63.9639 221.048,61.9082 217.514,59.5837C 213.98,57.2592 211.086,54.7528 208.833,52.0646C 206.58,49.3764 204.959,46.4984 203.97,43.4306C 202.982,40.3629 202.488,37.1766 202.488,33.8716C 202.488,28.6375 203.575,23.9292 205.749,19.7466C 207.924,15.5641 210.999,12.0061 214.976,9.07278C 218.953,6.13947 223.725,3.89401 229.291,2.3364C 234.857,0.778839 241.048,3.05176e-005 247.863,3.05176e-005C 251.611,3.05176e-005 255.054,0.13446 258.193,0.403259C 261.332,0.672089 264.163,1.00418 266.685,1.39951C 269.207,1.79483 271.456,2.24155 273.433,2.73965C 275.41,3.23776 277.189,3.68448 278.77,4.0798L 278.77,31.1202C 277.094,30.2821 275.192,29.4321 273.066,28.5703C 270.939,27.7085 268.638,26.9178 266.163,26.1983C 263.688,25.4789 261.083,24.8977 258.348,24.4549C 255.612,24.0122 252.781,23.7908 249.856,23.7908C 245.95,23.7908 242.799,24.4589 240.404,25.7951C 238.008,27.1313 236.81,28.9538 236.81,31.2625C 236.81,32.4485 237.071,33.5119 237.593,34.4528C 238.115,35.3936 238.945,36.2713 240.083,37.0856C 241.222,37.9 242.74,38.7421 244.638,39.6118C 246.535,40.4815 248.868,41.4303 251.635,42.4582C 256.379,44.245 260.751,46.1624 264.752,48.2101C 268.753,50.258 272.212,52.6062 275.129,55.2549C 278.047,57.9036 280.32,60.9081 281.949,64.2683C 283.577,67.6286 284.392,71.5068 284.392,75.9028 Z "/>
	</g>
</svg>
