<?xml version="1.0" encoding="utf-8"?>
<!DOCTYPE svg PUBLIC "-//W3C//DTD SVG 1.1//EN" "http://www.w3.org/Graphics/SVG/1.1/DTD/svg11.dtd">
<svg xmlns="http://www.w3.org/2000/svg" xmlns:xlink="http://www.w3.org/1999/xlink" version="1.1" baseProfile="full" width="251.614" height="252.45" viewBox="0 0 251.61 252.45" enable-background="new 0 0 251.61 252.45" xml:space="preserve">
	<g>
		<path fill="none" stroke-width="11" stroke-linejoin="round" stroke="#FFFFFF" stroke-opacity="1" d="M 145.72,5.50012C 205.496,5.50012 246.114,46.1173 246.114,105.894L 246.114,146.557L 246.036,151.05C 244.049,208.359 203.986,246.95 145.72,246.95L 105.894,246.95C 46.1172,246.95 5.5,207.64 5.5,147.863L 5.5,104.587C 5.5,46.5956 43.7278,7.86584 100.59,5.60461L 105.894,5.5L 145.72,5.50012 Z "/>
		<g>
			<ellipse fill="none" stroke-width="4" stroke-linejoin="round" stroke="#FFFFFF" stroke-opacity="1" cx="125.807" cy="126.225" rx="90.25" ry="90.2501"/>
			<ellipse fill="none" stroke-width="4" stroke-linejoin="round" stroke="#FFFFFF" stroke-opacity="1" cx="125.807" cy="126.225" rx="71.9141" ry="71.9141"/>
			<path fill="#FFFFFF" fill-opacity="1" stroke-width="4" stroke-linejoin="round" stroke="#FFFFFF" stroke-opacity="1" d="M 125.806,116.7C 131.067,116.7 135.331,120.964 135.331,126.225C 135.331,131.485 131.067,135.75 125.806,135.75C 120.546,135.75 116.281,131.485 116.281,126.225C 116.281,120.964 120.545,116.7 125.806,116.7 Z "/>
		</g>
		<g>
			<path fill="#FFFFFF" fill-opacity="1" stroke-width="4" stroke-linejoin="round" d="M 144.257,155.439L 153.872,155.439L 169.988,200.481L 160.373,200.481L 144.257,155.439 Z "/>
			<path fill="#FFFFFF" fill-opacity="1" stroke-width="4" stroke-linejoin="round" d="M 177.534,154.535L 187.482,154.535L 173.716,194.23L 168.246,179.702L 177.534,154.535 Z "/>
			<path fill="#FFFFFF" fill-opacity="1" stroke-width="4" stroke-linejoin="round" d="M 198.762,178.524L 209.693,178.524L 223.383,200.387L 212.452,200.387L 198.762,178.524 Z "/>
			<path fill="#FFFFFF" fill-opacity="1" stroke-width="4" stroke-linejoin="round" d="M 213.175,176.82L 217.623,183.633C 217.623,183.633 223.868,180.238 223.868,173.982C 223.868,164.146 220.77,154.772 206.078,154.772C 191.387,154.772 189.424,159.592 189.424,166.411C 189.424,173.23 189.424,200.384 189.424,200.384L 198.233,200.384L 198.232,165.274C 198.232,165.274 197.245,162.816 207.403,162.816C 217.562,162.816 216.014,175.118 213.175,176.82 Z "/>
		</g>
	</g>
</svg>
