<?xml version="1.0" encoding="utf-8"?>
<!DOCTYPE svg PUBLIC "-//W3C//DTD SVG 1.1//EN" "http://www.w3.org/Graphics/SVG/1.1/DTD/svg11.dtd">
<svg xmlns="http://www.w3.org/2000/svg" xmlns:xlink="http://www.w3.org/1999/xlink" version="1.1" baseProfile="full" width="157.832" height="151" viewBox="0 0 157.83 151.00" enable-background="new 0 0 157.83 151.00" xml:space="preserve">
	<path fill="#FFFFFF" fill-opacity="1" stroke-linejoin="round" d="M 11.5876,104.255L 12.9231,72.9149L 19.2563,51.2482L 25.2563,46.5815L 32.5896,50.5815L 29.9231,63.5815L 23.9231,86.2481L 27.2563,103.582L 36.9231,76.5815L 47.9231,58.5815L 58.2563,51.9148L 61.5896,56.5815L 60.9231,72.2481L 54.9231,98.2481L 55.2563,109.248L 63.5896,100.582L 72.9231,73.9149L 79.9231,68.9149L 83.2563,71.5815L 80.2563,90.5815L 78.9231,107.915L 78.9231,112.248L 93.2537,90.4998L 98.5037,83.2498L 105.754,82.9998L 104.754,88.7498L 100.254,95.2498L 95.5037,103.75L 92.0037,113L 96.0037,114.75L 113.754,99.7498L 117.417,99.6674L 119.167,102.917L 116.417,110.667L 114.167,120.417L 113.417,126.667L 116.167,126.667L 121.667,119.667L 128.417,110.917L 127.417,116.667L 124.417,123.667L 124.417,133.667L 129.167,130.417L 136.417,122.917L 136.667,136.917L 152.499,151L 156.499,143.667L 154.165,131L 148.499,122.667L 144.832,116L 140.832,113.667L 155.832,108.333L 157.832,102.667L 134.832,103L 129.832,99.6667L 141.165,96.6667L 151.499,90.3333L 147.832,85.6667L 130.832,88.3333L 119.165,84.3333L 123.499,81L 144.165,75L 144.832,70.3333L 132.832,68.3333L 111.499,75.6667L 104.165,74.6667L 102.165,71L 108.499,65.3333L 124.499,59.3333L 135.499,54.3333L 135.165,50.3333L 116.499,51.6667L 96.4985,59.3333L 88.8318,58.3333L 86.1653,57.3333L 87.4985,52L 104.832,45L 120.165,38.3333L 121.499,34.3333C 121.499,34.3333 115.165,32 113.832,32C 112.499,32 100.832,34 100.832,34L 77.4985,42L 73.4985,39.6667L 90.1653,29L 102.832,21L 108.165,14.6667L 99.8318,14L 84.4985,19L 61.1653,30.3333L 50.8318,32.3333L 57.4985,25.3333L 73.4985,15L 85.4985,4.66666L 86.1653,3.05176e-005L 48.4985,11.6667L 33.1653,21.3333L 25.4985,22L 21.1653,20.6667L 4.66675,37.3487L 0,87.3486L 11.5876,104.255 Z "/>
</svg>
