<?xml version="1.0" encoding="utf-8"?>
<!DOCTYPE svg PUBLIC "-//W3C//DTD SVG 1.1//EN" "http://www.w3.org/Graphics/SVG/1.1/DTD/svg11.dtd">
<svg xmlns="http://www.w3.org/2000/svg" xmlns:xlink="http://www.w3.org/1999/xlink" version="1.1" baseProfile="full" width="74.3232" height="61.2711" viewBox="0 0 74.32 61.27" enable-background="new 0 0 74.32 61.27" xml:space="preserve">
	<g>
		<path fill="none" stroke-width="3" stroke-linejoin="round" stroke="#FFFFFF" stroke-opacity="1" d="M 44.7449,1.50006C 60.2521,1.50006 72.8232,14.0712 72.8232,29.5783C 72.8232,45.0855 60.2521,57.6566 44.7449,57.6566C 29.2377,57.6566 16.6667,45.0855 16.6667,29.5783C 16.6667,14.0712 29.2378,1.50006 44.7449,1.50006 Z "/>
		<path fill="none" stroke-width="3" stroke-linejoin="round" stroke="#FFFFFF" stroke-opacity="1" d="M 62.4512,22.2645C 60.7252,23.9011 56.6727,22.4295 53.3995,18.9774C 50.1263,15.5255 48.8721,11.4003 50.5981,9.76373C 52.3241,8.12714 56.3767,9.59882 59.6499,13.0508C 62.9231,16.5029 64.1773,20.6279 62.4512,22.2645 Z "/>
		<path fill="#FFFFFF" fill-opacity="1" stroke-width="0.2" stroke-linejoin="round" d="M 31.1903,41.5368C 28.4331,41.5368 26.1979,43.7719 26.1979,46.5291C 26.1979,49.2864 28.4331,51.5217 31.1903,51.5217C 33.9475,51.5217 36.1827,49.2864 36.1827,46.5291C 36.1827,43.7719 33.9475,41.5368 31.1903,41.5368 Z M 28.2671,61.2711C 26.8039,53.7055 24.084,48.563 21.7589,48.563C 19.4339,48.563 16.5393,53.7055 14.9678,61.2711L 2.77365,61.2711C 1.24194,61.2711 -1.14441e-005,60.0294 -1.14441e-005,58.4975L -1.14441e-005,35.6127C -1.14441e-005,34.0807 1.24194,32.8391 2.77365,32.8391L 40.3776,32.8391C 41.9092,32.8391 43.151,34.0807 43.151,35.6127L 43.151,58.4975C 43.151,60.0294 41.9092,61.2711 40.3776,61.2711L 28.2671,61.2711 Z M 11.9603,41.537C 9.20304,41.537 6.96785,43.7722 6.96785,46.5294C 6.96785,49.2866 9.20304,51.5219 11.9603,51.5219C 14.7175,51.5219 16.9527,49.2866 16.9527,46.5294C 16.9527,43.7722 14.7175,41.537 11.9603,41.537 Z "/>
	</g>
</svg>
