<?xml version="1.0" encoding="utf-8"?>
<!DOCTYPE svg PUBLIC "-//W3C//DTD SVG 1.1//EN" "http://www.w3.org/Graphics/SVG/1.1/DTD/svg11.dtd">
<svg xmlns="http://www.w3.org/2000/svg" xmlns:xlink="http://www.w3.org/1999/xlink" version="1.1" baseProfile="full" width="162.422" height="125.819" viewBox="0 0 162.42 125.82" enable-background="new 0 0 162.42 125.82" xml:space="preserve">
	<g>
		<path fill="none" stroke-width="6" stroke-linejoin="round" stroke="#FFFFFF" stroke-opacity="1" d="M 4.8667,83.1409L 3,122.72C 3,122.72 41.459,123.467 54.1543,120.853C 66.8491,118.239 70.584,115.627 78.5498,104.176C 86.5161,92.7249 88.0098,91.2312 92.2417,90.4846C 96.4736,89.7375 103.195,91.7292 108.174,93.9695C 113.152,96.2102 116.638,98.4504 122.114,95.4631C 127.591,92.4758 138.046,99.446 145.764,96.9568C 153.48,94.4675 161.446,93.2229 158.957,77.0417C 156.468,60.8606 146.012,25.2625 138.046,16.052C 130.08,6.84106 103.278,-3.69702 76.5586,8.08569C 49.8389,19.8689 32.4131,23.8938 28.4302,49.0364C 24.4473,74.1794 28.6045,61.6067 4.8667,83.1409 Z "/>
		<path fill="none" stroke-width="6" stroke-linejoin="round" stroke="#FFFFFF" stroke-opacity="1" d="M 40.2607,51.0295C 40.2607,51.0295 44.2437,62.2317 38.2695,75.6741C 38.2695,75.6741 38.2695,81.8977 49.4717,90.3616C 49.4717,90.3616 62.9141,87.1252 64.4077,74.1804C 64.4077,74.1804 48.4756,51.0295 40.2607,51.0295 Z "/>
	</g>
</svg>
