<?xml version="1.0" encoding="utf-8"?>
<!DOCTYPE svg PUBLIC "-//W3C//DTD SVG 1.1//EN" "http://www.w3.org/Graphics/SVG/1.1/DTD/svg11.dtd">
<svg xmlns="http://www.w3.org/2000/svg" xmlns:xlink="http://www.w3.org/1999/xlink" version="1.1" baseProfile="full" width="182.951" height="158.345" viewBox="0 0 182.95 158.34" enable-background="new 0 0 182.95 158.34" xml:space="preserve">
	<g>
		<path fill="none" fill-rule="evenodd" stroke-width="6" stroke-linecap="round" stroke-linejoin="round" stroke="#FFFFFF" stroke-opacity="1" d="M 62.3633,75.6904C 64.8906,75.6904 66.9395,77.7393 66.9395,80.2666C 66.9395,82.7944 64.8906,84.8433 62.3633,84.8433C 59.8359,84.8433 57.7871,82.7944 57.7871,80.2666C 57.7871,77.7393 59.8359,75.6904 62.3633,75.6904 Z "/>
		<path fill="none" fill-rule="evenodd" stroke-width="6" stroke-linecap="round" stroke-linejoin="round" stroke="#FFFFFF" stroke-opacity="1" d="M 124.574,73.0044C 127.468,73.0044 129.814,75.7139 129.814,79.0562C 129.814,82.3984 127.468,85.1084 124.574,85.1084C 121.681,85.1084 119.335,82.3984 119.335,79.0562C 119.335,75.7139 121.681,73.0044 124.574,73.0044 Z "/>
		<path fill="none" fill-rule="evenodd" stroke-width="6" stroke-linecap="round" stroke-linejoin="round" stroke="#FFFFFF" stroke-opacity="1" d="M 7.51367,19.8462L 19.187,7.9082L 34.9717,4.06104L 50.3589,9.10205L 61.2358,20.377L 61.6338,23.2949L 69.062,19.1831L 77.9492,17.1934L 90.418,16.6626L 108.06,17.4585L 119.203,21.7031L 124.773,11.6221L 138.039,3L 158.333,3L 172.523,11.8213L 179.951,26.4121L 177.829,43.9214L 170.4,55.8599L 166.687,58.2476L 156.605,64.3491L 170.4,101.755L 162.441,127.754L 147.055,147.386L 132.198,150.835L 113.362,154.019L 98.2402,155.345L 75.9561,154.549L 64.814,153.223L 47.835,151.366L 27.9375,130.407L 18.6523,107.857L 23.6929,76.022L 27.1421,64.3491L 18.6523,61.4312L 7.24512,50.8193L 3,33.8403L 7.51367,19.8462 Z "/>
		<path fill="none" fill-rule="evenodd" stroke-width="6" stroke-linecap="round" stroke-linejoin="round" stroke="#FFFFFF" stroke-opacity="1" d="M 47.7686,73.3027L 54.1357,66.2725L 70.1855,65.4766L 73.2363,71.313L 73.1045,90.0166L 69.7881,91.8735L 54.666,105.801L 46.707,101.955L 43.9219,95.7202L 47.7686,73.3027 Z "/>
		<path fill="none" fill-rule="evenodd" stroke-width="6" stroke-linecap="round" stroke-linejoin="round" stroke="#FFFFFF" stroke-opacity="1" d="M 113.296,70.6499L 118.204,63.8848L 133.326,64.2827L 142.478,84.4453L 142.611,91.21L 139.693,99.0361L 134.387,104.475L 126.693,101.292L 116.082,89.8838L 113.296,71.313"/>
		<path fill="none" fill-rule="evenodd" stroke-width="6" stroke-linecap="round" stroke-linejoin="round" stroke="#FFFFFF" stroke-opacity="1" d="M 81.269,103.84L 84.9834,106.095L 89.626,110.207L 94.1357,111.136L 99.0439,110.87L 103.023,108.217L 108.196,102.912L 107.003,99.8608L 103.951,96.2793L 95.1968,96.0137L 86.1772,97.7383L 82.5952,100.657L 81.269,103.84 Z "/>
		<path fill="none" fill-rule="evenodd" stroke-width="6" stroke-linecap="round" stroke-linejoin="round" stroke="#FFFFFF" stroke-opacity="1" d="M 30.7969,56.5513L 24.6953,54.8271L 17.3994,47.3989L 13.9507,36.3892L 16.4712,25.5122L 24.9604,18.3491L 35.4395,15.1655L 46.1836,18.8799L 54.0098,27.3691"/>
		<path fill="none" fill-rule="evenodd" stroke-width="6" stroke-linecap="round" stroke-linejoin="round" stroke="#FFFFFF" stroke-opacity="1" d="M 123.048,24.9165L 125.303,19.876L 135.782,14.1724L 146.527,14.5703L 156.607,20.2739L 161.781,30.8857L 161.516,43.0894L 155.546,51.8438L 150.904,54.0991"/>
		<path fill="none" stroke-width="6" stroke-linejoin="round" stroke="#FFFFFF" stroke-opacity="1" d="M 74.5659,148.411L 94.8608,150.6L 111.176,148.61L 131.869,129.111L 132.132,116.015L 124.704,99.5669L 115.021,89.353L 102.685,86.0371L 85.0425,86.0371L 69.7881,91.8735L 61.2983,102.22L 56.6558,113.627L 56.8574,125.728L 62.2295,137.467L 74.5659,148.411 Z "/>
	</g>
</svg>
