<?xml version="1.0" encoding="utf-8"?>
<!DOCTYPE svg PUBLIC "-//W3C//DTD SVG 1.1//EN" "http://www.w3.org/Graphics/SVG/1.1/DTD/svg11.dtd">
<svg xmlns="http://www.w3.org/2000/svg" xmlns:xlink="http://www.w3.org/1999/xlink" version="1.1" baseProfile="full" width="527.328" height="153.904" viewBox="0 0 527.33 153.90" enable-background="new 0 0 527.33 153.90" xml:space="preserve">
	<g>
		<rect x="176.286" y="21.3307" fill="#FFFFFF" fill-opacity="1" fill-rule="evenodd" stroke-width="0.2" stroke-linejoin="round" width="31.7431" height="115.771"/>
		<path fill="#FFFFFF" fill-opacity="1" fill-rule="evenodd" stroke-width="0.2" stroke-linejoin="round" d="M 224.831,137.102L 224.831,21.3307L 314.46,21.3307L 314.46,43.7332L 258.444,43.7332L 258.444,68.0154L 308.859,68.0154L 308.859,90.4179L 258.444,90.4179L 258.444,114.69L 314.46,114.69L 314.46,137.102"/>
		<path fill="#FFFFFF" fill-opacity="1" fill-rule="evenodd" stroke-width="0.2" stroke-linejoin="round" d="M 331.262,137.102L 331.262,21.3307L 420.898,21.3307L 420.898,43.7332L 364.873,43.7332L 364.873,68.0154L 417.158,68.0154L 417.158,90.4179L 364.873,90.4179L 364.873,114.69L 420.898,114.69L 420.898,137.102"/>
		<path fill="#FFFFFF" fill-opacity="1" fill-rule="evenodd" stroke-width="0.2" stroke-linejoin="round" d="M 439.569,137.102L 439.569,21.3307L 527.328,21.3307L 527.328,43.7332L 471.313,43.7332L 471.313,68.0154L 523.597,68.0154L 523.597,90.4179L 471.313,90.4179L 471.313,114.69L 527.328,114.69L 527.328,137.102"/>
		<path fill="#FFFFFF" fill-opacity="1" fill-rule="evenodd" stroke-width="0.2" stroke-linejoin="round" d="M 86.6484,10.1295C 92.2585,15.7301 97.8591,23.1913 101.59,28.8013L 114.661,41.8726C 127.732,53.0738 138.933,62.405 152.005,71.7457C 153.875,73.6161 155.745,75.4763 155.745,77.3463C 155.745,81.0863 150.144,82.9469 148.274,84.8173C 122.132,103.489 99.7197,125.901 81.0478,152.034L 79.1872,153.904L 75.4472,153.904C 73.5772,152.034 73.5772,150.173 71.7166,150.173C 67.9766,142.702 62.376,137.102 58.6454,131.501C 54.9054,129.631 53.0448,125.901 51.1748,124.031C 36.2335,107.22 19.4317,92.2875 2.62042,81.0863C 0.759857,79.2167 -1.11018,77.3463 0.759857,75.4763C 0.759857,73.6161 2.62042,71.7457 4.49043,71.7457C 26.9023,56.8044 47.4442,36.2633 64.246,15.7301L 73.5772,0.788879C 75.4472,0.788879 77.3172,-1.08112 79.1872,0.788879C 79.1872,0.788879 81.0478,0.788879 81.0478,2.65967M 71.7166,21.3307C 67.9766,25.0621 62.376,28.8013 58.6454,32.532C 56.7754,32.532 56.7754,34.402 56.7754,34.402C 45.5742,43.7332 34.3729,54.9438 26.9023,66.145C 23.1626,69.8757 21.3017,71.7457 19.4317,75.4763C 19.4317,79.2167 19.4317,81.0863 21.3017,81.0863C 28.7633,92.2875 38.1035,103.489 49.3047,112.83C 56.7754,120.291 66.116,129.631 75.4472,133.362C 79.1872,135.232 82.9178,133.362 84.7878,131.501C 97.8591,122.161 110.93,110.959 122.132,97.8881C 125.862,92.2875 131.463,86.6869 135.203,79.2167C 135.203,75.4763 135.203,73.6161 133.333,71.7457C 124.002,58.6744 114.661,47.4732 101.59,36.2633C 97.8591,32.532 92.2585,28.8013 88.5185,25.0621C 84.7878,21.3307 77.3172,17.5907 71.7166,21.3307 Z "/>
		<path fill="#FFFFFF" fill-opacity="1" fill-rule="evenodd" stroke-width="0.2" stroke-linejoin="round" d="M 88.5185,28.8013C 103.46,41.8726 118.392,56.8044 129.602,73.6161C 131.463,75.4763 133.333,79.2167 131.463,81.0863C 127.732,84.8173 124.002,90.4179 120.262,94.1481C 110.93,105.359 101.59,114.69 90.3885,124.031C 84.7878,125.901 81.0478,133.362 73.5772,129.631C 58.6454,118.43 43.7041,103.489 30.6329,88.5475C 28.7633,86.6869 25.0323,82.9469 25.0323,79.2167C 23.1626,75.4763 26.9023,71.7457 28.7633,68.0154C 41.8341,51.2038 58.6454,36.2633 73.5772,25.0621C 79.1872,21.3307 84.7878,26.9313 88.5185,28.8013 Z M 77.3172,34.402L 75.4472,40.0026L 69.8466,60.5444L 75.4472,60.5444L 73.5772,84.8173L 81.0478,84.8173L 81.0478,60.5444L 86.6484,60.5444C 82.9178,51.2038 81.0478,43.7332 77.3172,34.402 Z M 53.0448,68.0154C 49.3047,69.8757 43.7041,71.7457 43.7041,77.3463C 45.5742,81.0863 47.4442,82.9469 51.1748,84.8173C 64.246,90.4179 82.9178,90.4179 99.7197,86.6869C 101.59,84.8173 107.19,82.9469 109.06,77.3463C 109.06,73.6161 103.46,71.7457 101.59,69.8757L 105.33,69.8757C 99.7197,68.0154 94.1191,66.145 90.3885,66.145C 90.3885,68.0154 92.2585,69.8757 92.2585,71.7457L 95.9891,71.7457C 99.7197,71.7457 103.46,73.6161 103.46,77.3463C 103.46,79.2167 99.7197,81.0863 97.8591,82.9469C 86.6484,86.6869 75.4472,86.6869 62.376,84.8173C 60.506,82.9469 54.9054,81.0863 54.9054,77.3463C 56.7754,71.7457 62.376,71.7457 67.9766,69.8757C 66.116,68.0154 62.376,66.145 60.506,64.275C 58.6454,66.145 54.9054,66.145 53.0448,68.0154 Z M 73.5772,90.4179C 73.5772,97.8881 73.5772,107.22 71.7166,114.69L 82.9178,114.69L 81.0478,92.2875L 81.0478,90.4179"/>
		<path fill="#FFFFFF" fill-opacity="1" fill-rule="evenodd" stroke-width="0.2" stroke-linejoin="round" d="M 109.06,140.832L 109.06,138.972L 112.791,138.972C 112.791,140.832 112.791,140.832 110.93,140.832M 109.06,142.702L 110.93,142.702L 112.791,146.433L 114.661,146.433L 112.791,142.702C 112.791,142.702 114.661,140.832 114.661,138.972C 114.661,137.102 112.791,137.102 110.93,137.102L 107.19,137.102L 107.19,146.433L 109.06,146.433M 118.392,140.832C 118.392,137.102 114.661,133.362 110.93,133.362C 107.19,133.362 103.46,137.102 103.46,140.832C 103.46,146.433 107.19,150.173 110.93,150.173C 114.661,150.173 118.392,146.433 118.392,140.832 Z M 116.531,140.832C 116.531,144.572 114.661,148.303 110.93,148.303C 107.19,148.303 105.33,144.572 105.33,140.832C 105.33,137.102 107.19,135.232 110.93,135.232C 114.661,135.232 116.531,137.102 116.531,140.832 Z "/>
	</g>
</svg>
