<?xml version="1.0" encoding="utf-8"?>
<!DOCTYPE svg PUBLIC "-//W3C//DTD SVG 1.1//EN" "http://www.w3.org/Graphics/SVG/1.1/DTD/svg11.dtd">
<svg xmlns="http://www.w3.org/2000/svg" xmlns:xlink="http://www.w3.org/1999/xlink" version="1.1" baseProfile="full" width="171.531" height="157" viewBox="0 0 171.53 157.00" enable-background="new 0 0 171.53 157.00" xml:space="preserve">
	<g>
		<g>
			<path fill="#FFFFFF" fill-opacity="1" stroke-linejoin="round" stroke="#FFFFFF" stroke-opacity="1" d="M 22.0315,101.5C 22.0315,101.5 25.96,56.4999 89.0315,56.4999C 152.103,56.4999 156.031,101.5 156.031,101.5C 156.031,101.5 166.161,49.4999 89.0315,49.4999C 11.9017,49.4999 22.0315,101.5 22.0315,101.5 Z "/>
			<path fill="none" stroke-linejoin="round" stroke="#FFFFFF" stroke-opacity="1" d="M 29.2225,83.0325C 36.5632,97.0703 61.3881,107.5 89.0315,107.5C 117.241,107.5 142.516,96.6385 149.269,82.1653C 148.004,80.2186 146.617,78.4577 145.156,76.8659C 140.504,90.2913 117.146,100.5 89.0315,100.5C 61.3134,100.5 38.219,90.5773 33.115,77.4321C 31.5751,79.476 30.2733,81.39 29.2225,83.0325 Z "/>
			<ellipse fill="none" stroke-linejoin="round" stroke="#FFFFFF" stroke-opacity="1" cx="87.0315" cy="86.9999" rx="82" ry="59.5001"/>
			<g>
				<defs>
					<ellipse id="SVG_CLIPPER1_" cx="87.5315" cy="78.5001" rx="83.5" ry="78.0001"/>
				</defs>
				<clipPath id="SVG_CLIPPER2_">
					<use xlink:href="#SVG_CLIPPER1_" overflow="visible"/>
				</clipPath>
				<g clip-path="url(#SVG_CLIPPER2_)">
					<path fill="#FFFFFF" fill-opacity="1" fill-rule="evenodd" stroke-width="0.2" stroke-linejoin="round" d="M 30.9739,44.2231C 31.7976,45.9572 32.2684,47.5047 32.3862,48.8655C 32.5591,50.5818 31.9492,51.9197 30.5566,52.8792C 29.6884,53.6076 28.6987,53.8261 27.5878,53.5355C 26.4768,53.2448 25.4969,52.5295 24.6482,51.3896C 24.3469,50.985 24.1006,50.4241 23.9095,49.707L 21.8062,51.6208C 22.0686,52.6013 22.4437,53.4189 22.9316,54.0742C 24.3542,55.4704 25.7856,56.2321 27.2263,56.3591C 28.6669,56.4861 30.1472,56.0139 31.667,54.9422C 33.6986,53.137 34.6028,51.0854 34.3794,48.7875C 34.197,47.0462 33.6042,45.1599 32.6011,43.1282"/>
					<path fill="#FFFFFF" fill-opacity="1" fill-rule="evenodd" stroke-width="0.2" stroke-linejoin="round" d="M 32.6011,43.1282C 32.3267,42.5722 32.0214,42.0053 31.6854,41.4276L 31.4642,41.3471L 28.5839,42.1308L 28.9384,42.8928C 29.3503,43.446 29.9041,43.6379 30.5991,43.4684C 30.7313,43.7238 30.8562,43.9754 30.9739,44.2231"/>
					<path fill="#FFFFFF" fill-opacity="1" fill-rule="evenodd" stroke-width="0.2" stroke-linejoin="round" d="M 53.1055,33.4235C 53.809,37.1795 54.2361,40.9539 54.387,44.7465C 54.6233,50.6896 54.3093,56.7741 53.4451,63.0002C 53.2533,63.3978 53.0415,63.6364 52.8099,63.7158C 52.5881,63.7919 52.3943,63.7609 52.2283,63.6227C 52.0624,63.4847 51.9241,63.2541 51.8132,62.9311C 51.9954,60.2321 52.1014,57.4626 52.1313,54.6225C 52.1614,51.7825 52.0857,48.9533 51.9042,46.1347C 51.7227,43.3162 51.4314,40.5153 51.0305,37.7319C 50.863,36.57 50.6692,35.4188 50.449,34.2786"/>
					<path fill="#FFFFFF" fill-opacity="1" fill-rule="evenodd" stroke-width="0.2" stroke-linejoin="round" d="M 111.796,30.7923C 111.706,30.9582 111.61,31.1164 111.509,31.2669C 110.968,32.0663 110.315,32.6769 109.55,33.0984C 108.784,33.52 107.947,33.787 107.039,33.8997C 106.131,34.0121 105.186,33.9905 104.205,33.8349C 103.408,33.7084 102.649,33.4868 101.929,33.1701C 101.21,32.8533 100.58,32.4496 100.042,31.9592C 99.5034,31.4684 99.094,30.8693 98.8134,30.1611C 98.6306,29.6999 98.5388,29.1913 98.5376,28.6359L 95.6425,28.3401C 95.6716,29.0068 95.7997,29.6349 96.0271,30.2244C 96.4189,31.2419 97.0166,32.1356 97.8201,32.9056C 98.6233,33.6756 99.5825,34.3098 100.698,34.808C 101.813,35.3063 103.008,35.6566 104.282,35.8587C 105.464,36.0462 106.604,36.0359 107.702,35.8278C 108.8,35.6198 109.8,35.2101 110.702,34.5988C 111.604,33.9876 112.362,33.1834 112.976,32.1859C 113.161,31.8849 113.329,31.5652 113.479,31.2272"/>
					<path fill="#FFFFFF" fill-opacity="1" fill-rule="evenodd" stroke-width="0.2" stroke-linejoin="round" d="M 145.32,45.7591C 145.075,46.0021 144.821,46.2244 144.558,46.4261C 143.628,47.1386 142.633,47.6196 141.573,47.869C 140.512,48.1181 139.432,48.144 138.331,47.9466C 137.231,47.7493 136.162,47.3522 135.125,46.7553C 134.007,46.112 133.016,45.3586 132.152,44.4953C 131.288,43.6318 130.618,42.6972 130.142,41.6912C 129.667,40.6854 129.427,39.6371 129.424,38.5468C 129.422,37.9448 129.516,37.342 129.708,36.7386L 132.338,37.9536C 132.139,38.4745 132.043,38.9841 132.049,39.4818C 132.059,40.2433 132.228,40.9492 132.556,41.5998C 132.884,42.2502 133.327,42.8517 133.887,43.4042C 134.446,43.957 135.076,44.4348 135.775,44.8372C 136.636,45.3327 137.511,45.6899 138.4,45.9089C 139.289,46.1277 140.166,46.1767 141.031,46.056C 141.896,45.9352 142.724,45.5978 143.515,45.0438C 143.648,44.9505 143.779,44.8495 143.907,44.7414"/>
					<path fill="#FFFFFF" fill-opacity="1" fill-rule="evenodd" stroke-width="0.2" stroke-linejoin="round" d="M 3.23718,47.9333C 3.60974,47.5233 4.23877,47.4885 5.12427,47.8284L 5.37244,46.8016C 5.18042,46.6951 4.98975,46.601 4.80054,46.5195L 4.78979,46.5336L 4.71912,46.4853C 4.02673,46.1995 3.35278,46.0815 2.69714,46.1312C 2.47803,46.8919 2.5166,47.3849 2.81299,47.6105L 3.23718,47.9333 Z "/>
					<path fill="#FFFFFF" fill-opacity="1" fill-rule="evenodd" stroke-width="0.2" stroke-linejoin="round" d="M 3.20288,45.5732L 3.74951,45.8203L 4.80054,46.5195L 5.4126,45.715C 5.37732,45.6562 5.34277,45.598 5.30945,45.54C 4.77515,45.0097 4.43945,44.6346 4.30261,44.4142L 3.76404,43.4388C 3.0188,43.1882 2.47693,43.285 2.13855,43.7297C 1.81482,44.1551 1.86853,44.7053 2.2998,45.3802L 2.79028,45.4705L 3.20288,45.5732 Z "/>
					<path fill="#FFFFFF" fill-opacity="1" fill-rule="evenodd" stroke-width="0.2" stroke-linejoin="round" d="M 5.30945,45.54C 5.34277,45.598 5.37732,45.6562 5.4126,45.715L 5.44458,45.6732C 5.39819,45.6277 5.35303,45.5833 5.30945,45.54 Z "/>
					<path fill="#FFFFFF" fill-opacity="1" fill-rule="evenodd" stroke-width="0.2" stroke-linejoin="round" d="M 67.5662,29.6979C 67.6396,30.9533 67.6644,32.2083 67.6401,33.4632C 67.5857,36.2956 67.3711,39.098 66.9963,41.8691C 66.6215,44.6403 66.1326,47.3847 65.5293,50.1025C 64.9263,52.8203 64.2849,55.4665 63.6053,58.0408C 63.7094,58.3493 63.8495,58.5585 64.0256,58.6689C 64.2017,58.7792 64.3885,58.819 64.5862,58.7883L 65.1689,58.6971C 66.015,56.2048 66.7546,53.6907 67.3881,51.1551C 68.0214,48.6193 68.5526,46.0732 68.9819,43.5169C 69.4114,40.9608 69.725,38.4227 69.9226,35.9026C 70.1035,33.5949 70.1763,31.4051 70.141,29.3333"/>
					<path fill="#FFFFFF" fill-opacity="1" fill-rule="evenodd" stroke-width="0.2" stroke-linejoin="round" d="M 14.5144,60.07C 15.329,60.8925 16.1278,61.7391 16.9109,62.6091C 18.792,64.6992 20.5917,66.8651 22.3101,69.1066C 24.0283,71.3481 25.6648,73.6574 27.2195,76.0344C 28.4203,77.8704 29.5599,79.6967 30.6384,81.5135C 31.009,80.97 31.3915,80.4174 31.7744,79.8757C 29.3286,75.1296 26.6044,70.695 23.6014,66.5721C 21.3514,63.4831 18.8792,60.5651 16.1844,57.8183"/>
				</g>
				<ellipse fill="none" stroke-linejoin="round" stroke="#FFFFFF" stroke-opacity="1" cx="87.5315" cy="78.5001" rx="83.5" ry="78.0001"/>
			</g>
			<path fill="#000000" fill-opacity="1" fill-rule="evenodd" stroke-width="0.2" stroke-linejoin="round" d="M 4.71924,46.4853L 4.78979,46.5336L 4.71924,46.4853 Z "/>
			<path fill="#000000" fill-opacity="1" fill-rule="evenodd" stroke-width="0.2" stroke-linejoin="round" d="M 49.8652,17.5515L 49.897,17.6308L 49.8652,17.5515 Z "/>
			<path fill="#000000" fill-opacity="1" fill-rule="evenodd" stroke-width="0.2" stroke-linejoin="round" d="M 50.8816,17.0942C 50.877,17.1608 50.8733,17.2285 50.87,17.2968L 50.9197,17.28C 50.9065,17.2162 50.8938,17.1545 50.8816,17.0942 Z "/>
			<path fill="#000000" fill-opacity="1" fill-rule="evenodd" stroke-width="0.2" stroke-linejoin="round" d="M 79.8021,25.2744C 79.8611,25.0838 79.8743,24.8837 79.8416,24.6743C 79.8334,24.6218 79.6765,24.4816 79.3708,24.2538C 79.4885,24.6015 79.6322,24.9417 79.8021,25.2744 Z "/>
		</g>
		<path fill="#FFFFFF" fill-opacity="1" stroke-width="0.2" stroke-linejoin="round" stroke="#FFFFFF" stroke-opacity="1" d="M 168.907,64.1678C 167.185,64.9765 165.451,65.687 163.706,66.2995C 160.73,60.5722 156.571,55.2658 151.446,50.5369C 151.921,50.8549 152.425,51.0873 152.959,51.2338C 153.755,51.4529 154.569,51.5018 155.401,51.3806C 156.232,51.2595 157.039,50.9901 157.822,50.5721C 158.605,50.1545 159.318,49.5893 159.96,48.8773C 160.422,48.3649 160.725,47.7895 160.869,47.1507C 161.013,46.5119 161.009,45.851 160.856,45.1678C 160.704,44.4846 160.415,43.81 159.991,43.1445C 159.567,42.4789 159.053,41.8737 158.449,41.3286C 157.155,40.1623 155.797,39.5724 154.373,39.5594C 152.95,39.5463 151.596,40.1213 150.31,41.2844C 149.661,42.0041 149.199,42.7514 148.923,43.5266C 148.646,44.3015 148.534,45.0746 148.586,45.8461C 148.639,46.6176 148.849,47.3539 149.217,48.0555C 149.449,48.4958 149.738,48.9158 150.085,49.3154C 148.618,48.0325 147.078,46.7952 145.47,45.6066C 146.033,45.0203 146.548,44.3212 147.015,43.5096C 147.35,42.9266 147.493,42.3312 147.443,41.7234C 147.393,41.1155 146.889,40.5363 145.933,39.9858C 145.066,39.487 144.294,39.3456 143.619,39.5618C 142.943,39.778 142.473,40.1161 142.208,40.5766C 141.955,41.0161 141.853,41.4964 141.901,42.0175C 141.95,42.5389 142.233,43.0086 142.753,43.4267C 143.116,43.5764 143.398,43.6528 143.597,43.6559C 143.796,43.659 143.945,43.5754 144.043,43.4051L 143.947,42.9705L 143.762,42.2645C 143.717,41.9559 143.808,41.6043 144.035,41.2098C 144.172,40.9705 144.357,40.8026 144.59,40.7057C 144.823,40.6088 145.086,40.6447 145.379,40.8133C 145.726,41.0129 145.915,41.2542 145.947,41.5373C 145.979,41.8205 145.875,42.1712 145.634,42.5897C 145.162,43.4111 144.641,44.0804 144.072,44.5975C 140.49,42.0744 136.593,39.7866 132.427,37.7682L 132.739,37.1155C 133.106,36.4787 133.506,35.9074 133.941,35.4012C 134.375,34.8952 134.92,34.43 135.576,34.0057C 136.232,33.5812 137.027,33.1909 137.96,32.8347C 138.894,32.4783 139.979,32.1664 141.215,31.8989L 142.484,32.9514L 144.014,34.2287L 145.631,35.4788L 147.265,36.5502L 148.453,36.9538C 149.071,37.1258 149.772,37.2469 150.557,37.3168C 151.343,37.3869 152.163,37.3483 153.018,37.2014C 153.872,37.0545 154.66,36.6713 155.383,36.0524L 154.596,35.6716L 154.115,35.6629L 152.509,35.7983C 152.018,35.8206 151.599,35.8029 151.25,35.7454L 150.19,35.455L 148.99,34.8691C 148.33,34.489 147.648,34.0248 146.944,33.4767L 144.847,31.7536L 142.932,30.1024L 141.669,29.1281C 142.578,28.7316 143.571,28.3578 144.648,28.007C 145.726,27.6561 146.806,27.3681 147.888,27.1434L 149.714,26.812C 159.553,37.0883 166.519,49.8152 169.433,63.8914L 168.907,64.1678 Z M 170,66.9597C 170.628,70.8172 170.954,74.7678 170.954,78.7894L 168.954,87.2892C 168.954,80.8327 167.537,74.6161 164.916,68.7949C 166.577,68.257 168.251,67.6467 169.939,66.9638 Z M 86.9536,27.7895L 82.9246,27.8602C 83.8973,27.7248 84.8422,27.3942 85.7588,26.8686C 86.7079,26.3244 87.4564,25.5921 88.0043,24.6716L 87.4478,27.4876L 90.6367,27.2014C 90.77,26.5203 90.8759,25.6921 90.954,24.7166L 91.1761,21.2034C 91.2094,20.5063 91.3187,19.8495 91.5046,19.2333C 91.6904,18.6171 91.9631,18.1932 92.3225,17.9612L 91.9353,15.8445C 90.1947,16.5482 89.1208,17.3215 88.7134,18.1644L 88.2064,22.5218L 86.8885,23.5257L 85.7664,24.4418C 85.4141,24.7031 85.0623,24.909 84.7103,25.0598C 84.3586,25.2106 83.9637,25.2885 83.5258,25.2938C 83.1429,25.2983 82.806,25.1806 82.5151,24.9411C 82.2244,24.7011 81.9832,24.3626 81.7917,23.9251C 81.6003,23.4876 81.4688,23.0106 81.397,22.494L 81.2816,21.0569C 81.2748,20.4672 81.3754,19.9391 81.5837,19.4728C 81.792,19.0063 82.1102,18.6447 82.5383,18.3876C 83.0404,18.8406 83.476,19.0648 83.8451,19.0605C 84.2831,19.0554 84.4989,18.7905 84.4927,18.2663L 84.3992,17.7888L 84.1859,17.2663L 83.8848,16.7497L 83.3217,15.9467C 82.4219,16.2816 81.7123,16.6409 81.1924,17.0248C 80.6727,17.4089 80.2504,17.8587 79.9253,18.3748C 79.6003,18.8909 79.3586,19.455 79.2004,20.0676C 79.042,20.68 78.9666,21.2879 78.9736,21.8915C 78.9834,22.7143 79.1156,23.5021 79.3701,24.2546L 79.1357,24.0837C 78.1766,25.1169 77.2629,25.6804 76.3943,25.7744C 76.8276,24.8618 77.1309,23.9101 77.3041,22.9196C 77.4774,21.929 77.5046,21.0536 77.3857,20.2938C 77.3123,19.8235 77.1542,19.3759 76.9115,18.9515C 76.6687,18.5268 76.3789,18.1531 76.0424,17.8305C 75.7056,17.508 75.3152,17.2548 74.871,17.0712C 74.4268,16.8875 73.9764,16.8314 73.5199,16.9028L 73.4125,16.9196C 72.3418,17.5966 71.4216,18.2861 70.6516,18.9877C 69.8816,19.6894 69.3348,20.2785 69.0115,20.7551C 68.6973,19.7288 68.1162,18.8701 67.2679,18.179C 65.6732,18.4284 64.3303,18.7484 63.2393,19.1389C 62.1483,19.5295 61.2279,20.0173 60.478,20.6022C 60.2083,20.8854 60.0801,21.0712 60.0941,21.1599C 60.1527,21.5346 60.5322,21.7302 61.2332,21.7463L 62.8582,21.0208C 63.3223,20.819 63.7776,20.6833 64.224,20.6135C 64.7385,20.533 65.2017,20.5478 65.6133,20.658C 65.8267,20.9284 66.0798,21.4526 66.3724,22.2307C 66.6653,23.0087 66.8931,23.9193 67.0562,24.9619C 67.2909,26.4632 67.4559,27.9643 67.5511,29.465C 62.5178,30.351 57.6658,31.5742 53.0433,33.0995C 52.6563,31.0788 52.1892,29.0634 51.642,27.0532L 52.3962,25.9355L 53.2,24.6916L 54.0581,23.6777C 54.3599,23.3828 54.7031,23.1693 55.0881,23.037C 55.5613,22.8747 55.9827,22.9926 56.3528,23.3908C 56.7227,23.7889 57.0298,24.3436 57.2738,25.0546L 57.5594,26.0862L 57.748,27.2414L 57.7523,28.3694C 57.7136,28.7292 57.6683,28.8869 57.6166,28.8426C 57.347,28.8221 57.0476,28.8683 56.718,28.9814C 56.2417,29.1448 56.0635,29.4012 56.1833,29.7503C 56.3333,30.1873 56.8656,30.7558 57.7805,31.4557C 58.5342,31.0911 59.0414,30.5634 59.302,29.8724C 59.5625,29.1811 59.7131,28.4485 59.7537,27.6743C 59.7943,26.9001 59.7546,26.1389 59.6345,25.3904C 59.5144,24.6423 59.3699,24.0218 59.2007,23.5291C 59.033,23.0399 58.8193,22.5906 58.5605,22.1818C 58.3016,21.7728 58.0005,21.4158 57.657,21.1107C 57.3134,20.8056 56.9105,20.5693 56.4481,20.4016C 55.9857,20.2338 55.3467,20.0876 54.5308,19.9628C 53.6365,21.0756 52.8684,22.0995 52.2266,23.0346C 51.5847,23.9697 51.1682,24.727 50.9771,25.3068C 50.3918,24.1328 49.5555,23.3005 48.468,22.8094C 46.8695,23.3581 45.5684,23.9196 44.5637,24.494C 43.5593,25.0685 42.746,25.7087 42.124,26.4144C 41.9031,26.7162 41.8105,26.9194 41.8464,27.0237C 41.9695,27.3826 42.3612,27.5145 43.0214,27.4191L 43.1908,27.3554L 44.5461,26.4035C 44.9663,26.1243 45.3901,25.9114 45.8174,25.7648C 46.3101,25.5956 46.7688,25.5296 47.1934,25.5661C 47.4506,25.7951 47.7915,26.2679 48.2162,26.9846C 48.6409,27.7011 49.0261,28.5637 49.3721,29.5716C 49.7595,31.0336 50.1011,32.5148 50.3967,34.015C 40.1233,37.7338 31.0765,42.9714 23.8149,49.3222C 23.6145,48.4235 23.4888,47.3123 23.438,45.989C 23.365,44.3489 23.4436,42.6584 23.6737,40.9174C 23.9038,39.1765 24.2822,37.3227 24.8091,35.3564C 24.7924,35.0163 24.7181,34.7578 24.5863,34.5807C 24.4771,34.434 24.0736,34.4206 23.3757,34.5403L 22.2596,38.9579L 21.5398,41.8807C 21.2454,41.872 20.8455,41.6743 20.3401,41.2873C 19.8347,40.9003 19.3822,40.4384 18.9824,39.9018C 18.5355,39.3016 18.1665,38.4291 17.8755,37.2849L 17.5975,36.0443C 32.5175,14.811 58.2327,0.789734 87.4536,0.789734C 111.545,0.789734 133.254,10.3205 148.494,25.5659L 146.045,26.1552L 142.981,27.123C 142.014,27.472 141.209,27.8015 140.565,28.1113C 140.266,27.9393 139.732,27.7214 138.962,27.4577C 138.193,27.194 137.357,26.967 136.456,26.7767C 135.555,26.5862 134.661,26.4548 133.773,26.3818C 132.886,26.309 132.112,26.3275 131.452,26.4372L 131.133,26.5517L 130.768,26.7656C 130.593,27.0705 130.666,27.3159 130.989,27.5016L 131.125,27.5444L 134.106,28.0805L 136.426,28.6962L 137.746,29.2382L 139.055,29.9163L 140.53,30.7653C 137.763,31.079 135.535,31.6328 133.847,32.4261C 132.159,33.2195 130.997,34.1678 130.362,35.2708C 130.119,35.6932 129.923,36.1152 129.775,36.5369C 124.712,34.2834 119.287,32.4173 113.577,30.9958C 113.872,30.2728 114.09,29.4694 114.231,28.5853C 114.336,27.9211 114.257,27.3139 113.993,26.764C 113.729,26.2141 113.053,25.8525 111.963,25.6795C 110.975,25.5228 110.204,25.6658 109.65,26.1087C 109.096,26.5517 108.777,27.0355 108.694,27.56C 108.615,28.0609 108.69,28.5461 108.921,29.0158C 109.152,29.4855 109.585,29.8231 110.219,30.0285C 110.613,30.0384 110.903,30.0095 111.09,29.9413C 111.277,29.8734 111.386,29.7421 111.417,29.548L 111.172,29.1765L 110.747,28.5827C 110.595,28.3105 110.555,27.9496 110.626,27.4999C 110.669,27.2275 110.782,27.0043 110.965,26.8309C 111.148,26.6574 111.407,26.5971 111.74,26.6501C 112.136,26.7128 112.399,26.8708 112.53,27.1237C 112.661,27.3766 112.688,27.7416 112.613,28.2186C 112.468,29.1277 112.23,29.9193 111.898,30.5926C 107.595,29.5966 103.137,28.8514 98.558,28.3807L 98.6133,27.7048C 98.7284,26.9792 98.8987,26.3026 99.124,25.6747C 99.3494,25.0471 99.6927,24.4179 100.154,23.7874C 100.616,23.157 101.219,22.5087 101.964,21.8431C 102.708,21.1772 103.61,20.4987 104.67,19.8078L 106.231,20.3383L 108.116,20.9858L 110.073,21.5766L 111.981,21.9948L 113.236,21.9476C 113.874,21.8881 114.572,21.7509 115.331,21.5361C 116.09,21.3212 116.842,20.9929 117.588,20.5507C 118.334,20.1086 118.934,19.4695 119.388,18.6335L 118.517,18.5583L 118.064,18.722L 116.612,19.4216C 116.162,19.6171 115.764,19.7504 115.417,19.8212L 114.324,19.928L 112.994,19.8085C 112.241,19.6891 111.438,19.4988 110.585,19.2377L 108.011,18.3763L 105.633,17.5169L 104.106,17.0573C 104.813,16.3627 105.608,15.6594 106.489,14.9471C 107.37,14.2348 108.276,13.5807 109.207,12.9846C 110.138,12.3884 111.05,11.8608 111.942,11.4017C 112.833,10.9426 113.667,10.5613 114.441,10.2581L 115.905,9.83295C 116.427,9.72198 116.894,9.69916 117.306,9.76459C 117.708,9.82843 117.99,10.0139 118.153,10.3207C 118.316,10.6276 118.37,10.9496 118.317,11.2869C 118.238,11.7844 118.026,12.1979 117.682,12.5273C 117.338,12.8569 116.976,12.9041 116.594,12.6689C 116.456,12.8356 116.292,12.8061 116.102,12.5804C 115.913,12.3548 115.839,12.1022 115.88,11.8222C 115.927,11.6375 116.011,11.4843 116.133,11.3622L 116.383,11.1898L 116.624,11.372C 116.706,11.4811 116.767,11.7414 116.807,12.1526C 117.654,12.074 118.116,11.7895 118.194,11.299C 118.227,11.0947 118.125,10.8288 117.889,10.5014C 117.652,10.1741 117.306,9.9743 116.85,9.90179C 116.247,9.80609 115.745,9.89154 115.345,10.158C 114.945,10.4245 114.703,10.8201 114.62,11.3447C 114.497,12.118 114.649,12.7322 115.076,13.1877C 115.503,13.6432 116.018,13.9186 116.621,14.0143C 116.959,14.0678 117.321,14.0407 117.708,13.9328C 118.096,13.8249 118.469,13.6528 118.83,13.4167C 119.19,13.1805 119.506,12.8821 119.776,12.5218C 120.046,12.1613 120.23,11.7409 120.327,11.2602C 120.382,10.8079 120.337,10.4062 120.194,10.0554C 120.05,9.70428 119.844,9.39044 119.576,9.11371C 119.307,8.83722 118.98,8.61591 118.594,8.44989C 118.208,8.28387 117.84,8.17316 117.489,8.11749C 116.876,8.0202 116.155,8.08978 115.326,8.32684C 114.498,8.56378 113.633,8.89545 112.733,9.32172C 111.832,9.74823 110.899,10.2557 109.932,10.8444C 108.966,11.4333 108.033,12.0578 107.134,12.7182L 104.616,14.7155C 103.838,15.3864 103.203,15.9814 102.712,16.5007C 102.371,16.4466 101.794,16.4338 100.981,16.4619C 100.168,16.4901 99.3071,16.576 98.3973,16.7197C 97.4875,16.8635 96.6052,17.0595 95.7502,17.3079C 94.8954,17.5565 94.1792,17.8498 93.6018,18.1877L 93.344,18.4086L 93.0795,18.7386C 93.0244,19.0861 93.1807,19.289 93.5487,19.3474L 93.6914,19.3386L 96.667,18.7762L 99.054,18.5237L 100.481,18.559L 101.945,18.7259L 103.626,18.9925C 101.153,20.2729 99.2693,21.5848 97.9753,22.9284C 96.6812,24.2718 95.9344,25.572 95.7349,26.8289L 95.6357,28.1191C 92.7827,27.9012 89.8862,27.7895 86.9536,27.7895 Z M 79.3701,24.2546L 79.8408,24.6751C 79.8735,24.8845 79.8604,25.0844 79.8013,25.2752L 79.3701,24.2546 Z M 79.8013,25.2752L 79.9219,25.5021C 80.5349,26.6121 81.493,27.3996 82.7963,27.8647C 78.479,28.0212 74.2499,28.4197 70.134,29.0424L 70.1278,28.7651L 72.3002,28.4255L 75.3109,27.9545L 76.4224,27.6447C 76.9315,27.4743 77.4402,27.2498 77.9482,26.9714C 78.4563,26.6931 78.9177,26.3616 79.3324,25.9774C 79.5676,25.7592 79.724,25.5252 79.8013,25.2752 Z M 4.95361,87.2895L 3.95361,78.7897C 3.95361,76.886 4.02673,74.9985 4.17017,73.1291C 4.75378,73.0778 5.30786,72.9428 5.83252,72.7244C 6.54626,72.4271 7.17615,71.9911 7.72168,71.4168L 8.04639,71.0467C 6.03174,76.2098 4.95361,81.6584 4.95361,87.2895 Z M 21.3755,46.3377C 21.2904,48.2562 21.4023,49.8904 21.7114,51.2409C 19.6029,53.247 17.666,55.3533 15.9169,57.5482C 14.4988,56.1165 13.0198,54.7318 11.4797,53.3937L 11.4849,52.0456L 11.4612,50.5646L 11.6104,49.2448C 11.6971,48.8317 11.8636,48.4633 12.1102,48.1395C 12.413,47.7415 12.829,47.6049 13.3578,47.7302C 13.8867,47.8552 14.4504,48.1453 15.0488,48.6008L 15.8599,49.2991L 16.6589,50.1542L 17.2899,51.0893C 17.4578,51.4099 17.5078,51.5661 17.4403,51.558C 17.2048,51.6909 16.9814,51.8962 16.7705,52.1733C 16.4657,52.574 16.46,52.886 16.7538,53.1097C 17.1216,53.3895 17.8802,53.5657 19.0297,53.6386C 19.4534,52.9167 19.5814,52.196 19.4136,51.4765C 19.2458,50.7573 18.9634,50.0648 18.5667,49.3987C 18.1697,48.7326 17.7133,48.122 17.1975,47.5668C 16.6815,47.0117 16.2162,46.5765 15.8018,46.2612C 15.39,45.9479 14.9629,45.6933 14.5204,45.4974C 14.0779,45.3016 13.6289,45.1723 13.1737,45.1098C 12.8257,45.062 12.4711,45.0671 12.1099,45.1245C 13.2668,42.8696 14.5361,40.6745 15.9114,38.5458L 16.4084,40.2737C 16.6648,41.0224 16.9692,41.6332 17.3215,42.1063C 17.5564,42.4217 17.8734,42.7176 18.2729,42.9943C 18.6724,43.2708 19.0964,43.5067 19.5448,43.7016C 19.9932,43.8968 20.4346,44.0305 20.869,44.1025C 21.3032,44.1747 21.5769,44.1711 21.6895,44.0915C 21.5754,44.4001 21.4999,44.7391 21.4631,45.1082L 21.3755,46.3377 Z M 39.2225,26.7849C 39.0829,27.3798 39.009,27.8818 39.0009,28.2907L 39.6829,30.5886L 40.3232,32.4056L 40.8842,34.2415L 41.2787,35.8602L 41.6483,37.405L 44.3469,36.0648L 43.6653,34.0563L 42.7504,31.3754L 41.9272,28.5395C 41.6812,27.5983 41.5835,26.8532 41.6342,26.3041L 40.5007,24.6022C 39.7881,25.4622 39.3622,26.1898 39.2225,26.7849 Z M 37.8412,18.7557L 36.6591,18.22C 36.3054,18.702 36.0922,19.1761 36.0193,19.6425C 35.9463,20.1088 36.0386,20.6266 36.2959,21.1953L 36.8544,22.1408C 37.0859,22.4601 37.4613,22.8298 37.9807,23.2497L 38.8362,21.7894C 38.8857,21.305 38.8826,20.8835 38.8262,20.5247C 38.7699,20.1658 38.6826,19.8561 38.5647,19.5954C 38.3911,19.2119 38.1501,18.9319 37.8412,18.7557 Z M 66.1941,14.7101C 65.4844,15.0952 64.9944,15.6946 64.7236,16.5085L 66.0961,16.0765L 67.9539,15.6995L 69.0212,15.5771L 70.3435,15.4935L 71.7474,15.3969L 73.0295,15.2409L 74.267,14.9662C 74.7373,14.8386 75.1963,14.6699 75.6436,14.4604C 76.0908,14.2508 76.491,13.9963 76.8438,13.6966C 77.1967,13.3972 77.3925,12.8918 77.4314,12.1805C 76.9307,12.5729 76.4417,12.8441 75.9641,12.9938L 74.619,13.3167L 73.4277,13.4506L 71.9559,13.5656L 70.3511,13.7014L 68.7356,13.9017C 67.7507,14.0556 66.9036,14.3251 66.1941,14.7101 Z M 70.6523,11.3239C 70.6392,11.7309 70.6973,12.3486 70.8264,13.1766L 72.3091,12.7772L 72.4824,11.5745L 72.4551,10.597C 72.3838,10.1403 72.1643,9.74188 71.7969,9.40118C 71.4119,9.46136 71.1586,9.57257 71.0374,9.73468C 70.916,9.89679 70.825,10.1004 70.7637,10.3456L 70.6523,11.3239 Z M 47.8276,17.9313C 48.3652,17.7978 48.9075,18.1186 49.4543,18.8935L 50.2317,18.1784L 49.9131,17.6258L 50.8694,17.2977L 50.8809,17.0949C 50.7317,16.3569 50.6614,15.8583 50.6702,15.5993L 50.765,14.4891C 50.285,13.8661 49.7808,13.6453 49.2523,13.8268C 48.7466,14.0003 48.4854,14.4875 48.4685,15.2883L 48.8257,15.6359L 49.1117,15.9509L 49.4286,16.4601L 49.9131,17.6258L 49.8964,17.6315L 49.8646,17.5521C 49.448,16.9295 48.9535,16.4565 48.3811,16.1331C 47.7759,16.6435 47.5337,17.0749 47.6547,17.4272L 47.8276,17.9313 Z M 10.9939,56.7492C 12.0969,57.7205 13.1738,58.7309 14.225,59.7806C 12.4017,62.3133 10.8225,64.9531 9.50964,67.6835L 9.52881,66.8522C 9.47998,66.0276 9.26465,65.2411 8.8822,64.4929C 8.50073,63.7444 7.98608,63.0667 7.33875,62.4597C 6.94238,62.0878 6.50244,61.759 6.0188,61.4728C 6.55615,59.2585 7.19421,57.0799 7.92859,54.9417L 8.59448,55.2419C 9.34595,55.6014 10.1458,56.1038 10.9939,56.7492 Z M 9.95581,52.3122L 9.05322,51.887L 9.73047,50.2245C 9.74194,51.1171 9.81689,51.8129 9.95581,52.3122 Z M 7.08008,69.8651C 6.24121,70.3836 5.35352,70.6027 4.41724,70.5223C 4.65405,68.4213 4.98035,66.3452 5.39233,64.2972C 5.9458,64.7665 6.36707,65.3196 6.65601,65.9564C 7.18201,67.116 7.32349,68.4188 7.08008,69.8651 Z M 74.625,20.0866C 74.949,20.5283 75.1659,21.0999 75.2756,21.8021C 75.4153,22.6948 75.407,23.6125 75.2505,24.555C 75.1313,25.0204 74.9857,25.3786 74.8137,25.6288C 74.6416,25.8792 74.4417,26.0735 74.2136,26.2122C 73.9857,26.3509 73.7001,26.4609 73.3568,26.5427L 72.0496,26.7889L 70.9453,26.9616L 70.0713,27.0983L 69.9634,26.4081L 69.8228,25.5086L 69.6189,24.205L 69.3472,22.4672L 70.1953,21.68L 71.2137,20.7249L 72.2524,19.9496C 72.5902,19.7433 72.9398,19.6118 73.301,19.5554C 73.8597,19.468 74.3011,19.645 74.625,20.0866 Z M 154.73,48.8021C 153.463,48.9274 152.184,48.6425 150.893,47.9472C 150.543,46.4294 150.94,45.0363 152.083,43.7682C 152.949,42.8076 153.934,42.2702 155.038,42.1556C 156.142,42.0412 157.415,42.3802 158.855,43.1727C 159.068,43.931 159.112,44.6259 158.988,45.2575C 158.865,45.889 158.59,46.4404 158.165,46.9118C 157.142,48.0466 155.997,48.6767 154.73,48.8021 Z "/>
	</g>
</svg>
