<?xml version="1.0" encoding="utf-8"?>
<!DOCTYPE svg PUBLIC "-//W3C//DTD SVG 1.1//EN" "http://www.w3.org/Graphics/SVG/1.1/DTD/svg11.dtd">
<svg xmlns="http://www.w3.org/2000/svg" xmlns:xlink="http://www.w3.org/1999/xlink" version="1.1" baseProfile="full" width="205.722" height="140.596" viewBox="0 0 205.72 140.60" enable-background="new 0 0 205.72 140.60" xml:space="preserve">
	<path fill="#FFFFFF" fill-opacity="1" stroke-width="0.2" stroke-linejoin="round" d="M 190.214,54.9545C 198.779,54.9545 205.722,61.8978 205.722,70.4629C 205.722,79.0282 198.779,85.9716 190.214,85.9716C 181.648,85.9716 174.705,79.0282 174.705,70.4629C 174.705,61.8978 181.648,54.9545 190.214,54.9545 Z "/>
	<path fill="#FFFFFF" fill-opacity="1" stroke-width="0.2" stroke-linejoin="round" d="M 15.5085,54.9545C 24.0737,54.9545 31.0171,61.8978 31.0171,70.4629C 31.0171,79.0282 24.0737,85.9716 15.5085,85.9716C 6.94336,85.9716 0,79.0282 0,70.4629C 0,61.8978 6.94336,54.9545 15.5085,54.9545 Z "/>
	<path fill="#FFFFFF" fill-opacity="1" stroke-width="0.2" stroke-linejoin="round" d="M 116.154,0C 142.93,0 166.209,14.9697 178.079,36.9966L 120.79,70.0726L 178.263,103.255C 166.451,125.47 143.069,140.596 116.154,140.596C 77.3293,140.596 45.8561,109.122 45.8561,70.2979C 45.8561,31.4734 77.3293,0 116.154,0 Z "/>
</svg>
