<?xml version="1.0" encoding="utf-8"?>
<!DOCTYPE svg PUBLIC "-//W3C//DTD SVG 1.1//EN" "http://www.w3.org/Graphics/SVG/1.1/DTD/svg11.dtd">
<svg xmlns="http://www.w3.org/2000/svg" xmlns:xlink="http://www.w3.org/1999/xlink" version="1.1" baseProfile="full" width="126.004" height="142.149" viewBox="0 0 126.00 142.15" enable-background="new 0 0 126.00 142.15" xml:space="preserve">
	<path fill="none" stroke-width="8" stroke-linejoin="round" stroke="#FFFFFF" stroke-opacity="1" d="M 4,3.99976L 122.003,3.99976L 111.468,124.377L 63.6196,138.148L 14.7944,124.381L 4,3.99976 Z "/>
	<g>
		<path fill="#FFFFFF" fill-opacity="1" stroke-linejoin="round" d="M 40.8569,98.4739L 33.3501,98.4739L 33.3501,51.1812L 22.0898,51.1812L 22.0898,57.1868L 14.583,57.1868L 14.583,43.6746L 59.624,43.6746L 59.624,57.1868L 52.1172,57.1868L 52.1172,51.1812L 40.8569,51.1812L 40.8569,98.4739 Z "/>
		<path fill="#FFFFFF" fill-opacity="1" stroke-linejoin="round" d="M 66.3799,98.4739L 66.3799,43.6746L 85.229,43.6746C 92.478,43.6746 98.6553,46.3486 103.761,51.6973C 108.868,57.0459 111.421,63.5166 111.421,71.1094C 111.421,78.6318 108.899,85.0732 103.855,90.4333C 98.812,95.7937 92.5874,98.4739 85.1821,98.4739L 66.3799,98.4739 Z M 73.8867,51.1812L 73.8867,90.967L 85.1938,90.967C 90.3628,90.967 94.7749,89.0242 98.4302,85.1377C 102.086,81.2512 103.914,76.5635 103.914,71.0742C 103.914,65.616 102.086,60.936 98.4302,57.0342C 94.7749,53.1321 90.3628,51.1812 85.1938,51.1812L 73.8867,51.1812 Z "/>
	</g>
</svg>
