<?xml version="1.0" encoding="utf-8"?>
<!DOCTYPE svg PUBLIC "-//W3C//DTD SVG 1.1//EN" "http://www.w3.org/Graphics/SVG/1.1/DTD/svg11.dtd">
<svg xmlns="http://www.w3.org/2000/svg" xmlns:xlink="http://www.w3.org/1999/xlink" version="1.1" baseProfile="full" width="198.855" height="126.329" viewBox="0 0 198.86 126.33" enable-background="new 0 0 198.86 126.33" xml:space="preserve">
	<g>
		<path fill="#FFFFFF" fill-opacity="1" stroke-linejoin="round" d="M 13.9219,16.2222C 29.5308,5.88672 52.1016,24.6602 52.1016,24.6602C 45.457,24.6597 43.5586,26.5586 42.6094,49.3398C 41.6602,72.1208 64.125,80.6641 64.125,80.6641L 71.2969,88.3633C 71.2969,88.3633 63.7031,80.7695 40.2891,78.2383C 16.875,75.7068 0.843262,60.9414 0,44.9099C -0.843262,28.8784 13.9214,16.2227 13.9219,16.2222 Z M 9.13037,43.0833C 8.68799,48.1626 9.59326,52.2275 10.6348,55.2373C 11.6763,58.2468 16.0747,67.6226 19.2002,63.1084C 22.3257,58.5942 20.3579,54.6584 17.6958,50.2598C 15.0332,45.8613 12.3711,39.958 13.1812,37.4114C 13.9917,34.8647 12.7183,30.0032 11.792,32.3184C 10.8662,34.6333 9.36133,40.4209 9.13037,43.0833 Z "/>
		<path fill="#FFFFFF" fill-opacity="1" stroke-linejoin="round" d="M 52.2075,35.7866C 45.4155,41.22 45.8794,56.4585 46.7231,61.521C 47.5664,66.5837 65.2856,84.7241 78.7856,83.459C 92.2856,82.1934 93.5513,68.6929 94.8169,61.5212C 96.0825,54.3494 72.8794,32.8335 66.1294,32.8337C 59.3794,32.8337 54.3164,34.0996 52.2075,35.7866 Z M 129.411,68.2712C 120.973,62.7871 112.113,62.7871 105.785,67.0059C 99.4575,71.2244 104.941,88.5215 106.629,97.3809C 108.317,106.24 124.348,116.365 133.208,118.053C 142.067,119.74 144.176,108.35 146.286,103.287C 148.395,98.2244 143.754,86.834 140.379,83.8806C 137.004,80.9272 136.485,72.8699 129.411,68.2712 Z M 13.394,22.2871C 11.8125,6.88818 35.3315,14.0608 59.1675,20.5999C 83.0034,27.1384 107.472,8.15479 107.472,8.15454C 140.379,-14.8379 205.559,17.0139 191.004,27.3496C 176.449,37.6853 188.261,49.4985 188.262,49.498C 210.622,80.084 191.847,99.2795 184.887,98.2246C 177.926,97.1699 173.496,101.6 154.09,118.053C 134.684,134.506 112.113,123.749 104.308,109.404C 96.5039,95.0605 86.3784,96.1155 86.3784,96.1152C 56.0034,97.3809 36.1753,58.9902 35.7534,50.9746C 35.332,42.9585 13.394,22.2874 13.394,22.2871 Z M 112.112,15.5381C 106.628,19.335 95.6597,26.084 98.1904,31.1467C 100.722,36.2095 104.097,39.1624 111.269,41.6938C 118.44,44.2251 146.707,45.0686 153.034,40.4282C 159.362,35.7876 170.332,27.7717 165.269,22.71C 160.206,17.6475 153.035,10.4756 138.69,10.0537C 124.347,9.63184 118.862,12.1631 114.222,14.2725L 112.112,15.5381 Z M 172.863,44.6465C 166.447,42.5081 160.207,48.4434 153.878,52.2402C 147.55,56.0374 142.488,70.3809 145.441,74.6001C 148.394,78.8188 163.16,86.4126 165.691,90.2095C 168.222,94.0061 185.097,96.959 190.16,89.3657C 195.222,81.772 194.378,72.9121 192.691,64.4749C 191.003,56.0374 179.191,46.7563 172.863,44.6465 Z "/>
	</g>
</svg>
