<?xml version="1.0" encoding="utf-8"?>
<!DOCTYPE svg PUBLIC "-//W3C//DTD SVG 1.1//EN" "http://www.w3.org/Graphics/SVG/1.1/DTD/svg11.dtd">
<svg xmlns="http://www.w3.org/2000/svg" xmlns:xlink="http://www.w3.org/1999/xlink" version="1.1" baseProfile="full" width="106.921" height="165.246" viewBox="0 0 106.92 165.25" enable-background="new 0 0 106.92 165.25" xml:space="preserve">
	<path fill="none" fill-rule="evenodd" stroke-width="7" stroke-linecap="round" stroke-linejoin="round" stroke="#FFFFFF" stroke-opacity="1" d="M 53.4602,3.50024L 53.4602,3.50024C 73.3438,3.50024 89.4626,19.6191 89.4626,39.5024L 89.4626,86.3135C 89.4626,106.197 73.3438,122.315 53.4602,122.315L 53.4602,122.315C 33.5769,122.315 17.4583,106.197 17.4583,86.3135L 17.4583,39.5024C 17.4583,19.6191 33.5769,3.50024 53.4602,3.50024 Z M 103.421,62.1953L 103.421,88.8638C 103.421,116.456 81.0527,138.824 53.4602,138.824C 25.8682,138.824 3.5,116.456 3.5,88.8638L 3.5,62.2373M 53.4602,145.18L 53.4602,154.529M 25.877,161.746L 81.0437,161.746"/>
</svg>
