<svg xmlns="http://www.w3.org/2000/svg" baseProfile="full" width="168.249" height="89.746" viewBox="0 0 168.25 89.75"><path fill="#FFF" d="M3.488 0H39.56c22.283 0 39.928 20.395 39.928 44.894 0 24.498-17.645 44.852-39.928 44.852-1.518 0-2.872-.902-3.488-2.298L0 5.376C-1.108 2.873.739 0 3.488 0zm5.91 7.674L42.02 81.95c16.456-1.478 29.751-17.195 29.751-37.056 0-20.847-14.65-37.22-32.213-37.22H9.397zM121.631 0c1.559 0 2.913.903 3.529 2.298l20.632 46.946h18.639c2.093 0 3.817 1.723 3.817 3.857v32.83a3.81 3.81 0 0 1-3.817 3.816H121.632c-22.283 0-39.888-20.355-39.888-44.853C81.744 20.395 99.35 0 121.632 0zm-2.422 7.838c-16.455 1.436-29.792 17.194-29.792 37.056 0 20.846 14.691 37.179 32.214 37.179h30.202L119.21 7.838zm41.365 49.08h-11.409l11.056 25.155h.353V56.918z"/></svg>