<?xml version="1.0" encoding="utf-8"?>
<!DOCTYPE svg PUBLIC "-//W3C//DTD SVG 1.1//EN" "http://www.w3.org/Graphics/SVG/1.1/DTD/svg11.dtd">
<svg xmlns="http://www.w3.org/2000/svg" xmlns:xlink="http://www.w3.org/1999/xlink" version="1.1" baseProfile="full" width="182.936" height="158.834" viewBox="0 0 182.94 158.83" enable-background="new 0 0 182.94 158.83" xml:space="preserve">
	<g>
		<g>
			<ellipse fill="#FFFFFF" fill-opacity="0.301961" stroke-linejoin="round" stroke="#FFFFFF" stroke-opacity="0.403922" cx="88.8999" cy="81.6899" rx="76.6445" ry="76.6445"/>
			<path fill="#FFFFFF" fill-opacity="0.301961" stroke-linejoin="round" stroke="#FFFFFF" stroke-opacity="0.403922" d="M 47.8196,33.8218C 52.1614,35.1332 53.5548,43.2349 50.9321,51.9185C 48.3094,60.6016 42.6638,66.5776 38.3223,65.2665C 33.9807,63.9551 32.5872,55.853 35.2097,47.1698C 37.8325,38.4863 43.4779,32.5104 47.8196,33.8218 Z "/>
			<path fill="#FFFFFF" fill-opacity="0.301961" stroke-linejoin="round" stroke="#FFFFFF" stroke-opacity="0.403922" d="M 145.712,100.517C 150.964,105.758 146.725,118.523 136.243,129.028C 125.761,139.533 113.006,143.8 107.753,138.559C 102.5,133.318 106.74,120.554 117.222,110.049C 127.704,99.5433 140.459,95.276 145.712,100.517 Z "/>
		</g>
		<g>
			<path fill="#FFFFFF" fill-opacity="0.301961" stroke-linejoin="round" stroke="#FFFFFF" stroke-opacity="0.403922" d="M 167.171,124.527C 175.602,124.527 182.436,131.361 182.436,139.792C 182.436,148.222 175.602,155.056 167.171,155.056C 158.741,155.056 151.907,148.222 151.907,139.792C 151.907,131.361 158.741,124.527 167.171,124.527 Z "/>
			<path fill="#FFFFFF" fill-opacity="0.301961" stroke-linejoin="round" stroke="#FFFFFF" stroke-opacity="0.403922" d="M 162.703,130.623C 165.214,130.623 167.249,132.658 167.249,135.169C 167.249,137.679 165.213,139.714 162.703,139.714C 160.192,139.714 158.157,137.679 158.157,135.169C 158.157,132.658 160.192,130.623 162.703,130.623 Z "/>
		</g>
		<g>
			<path fill="#FFFFFF" fill-opacity="0.301961" stroke-linejoin="round" stroke="#FFFFFF" stroke-opacity="0.403922" d="M 144.144,0.5C 162.452,0.5 177.294,15.3417 177.294,33.6495C 177.294,51.9575 162.452,66.799 144.144,66.799C 125.836,66.799 110.995,51.9575 110.995,33.6495C 110.995,15.3417 125.836,0.5 144.144,0.5 Z "/>
			<path fill="#FFFFFF" fill-opacity="0.301961" stroke-linejoin="round" stroke="#FFFFFF" stroke-opacity="0.403922" d="M 163.06,26.708C 160.697,28.328 156.155,25.8097 152.915,21.0835C 149.676,16.3573 148.965,11.2129 151.328,9.5929C 153.691,7.97314 158.233,10.4913 161.473,15.2174C 164.713,19.9438 165.423,25.088 163.06,26.708 Z "/>
		</g>
	</g>
	<path fill="#FFFFFF" fill-opacity="1" stroke-linejoin="round" stroke="#FFFFFF" stroke-opacity="1" d="M 69.0017,113.268C 62.946,113.268 58.0371,118.177 58.0371,124.233C 58.0371,130.288 62.946,135.197 69.0017,135.197C 75.0571,135.197 79.9662,130.288 79.9662,124.233C 79.9662,118.177 75.0571,113.268 69.0017,113.268 Z M 62.5815,156.61C 59.368,139.994 53.3943,128.7 48.2881,128.7C 43.1816,128.7 36.8245,139.994 33.373,156.61L 6.59167,156.61C 3.22766,156.61 0.5,153.882 0.5,150.518L 0.5,100.257C 0.5,96.8931 3.22766,94.166 6.59167,94.166L 89.1791,94.166C 92.5428,94.166 95.2701,96.8931 95.2701,100.257L 95.2701,150.518C 95.2701,153.882 92.5428,156.61 89.1791,156.61L 62.5815,156.61 Z M 26.7678,113.269C 20.7122,113.269 15.8032,118.178 15.8032,124.233C 15.8032,130.289 20.7122,135.198 26.7678,135.198C 32.8232,135.198 37.7323,130.289 37.7323,124.233C 37.7323,118.178 32.8232,113.269 26.7678,113.269 Z "/>
</svg>
