<?xml version="1.0" encoding="utf-8"?>
<!DOCTYPE svg PUBLIC "-//W3C//DTD SVG 1.1//EN" "http://www.w3.org/Graphics/SVG/1.1/DTD/svg11.dtd">
<svg xmlns="http://www.w3.org/2000/svg" xmlns:xlink="http://www.w3.org/1999/xlink" version="1.1" baseProfile="full" width="23.6104" height="23.0075" viewBox="0 0 23.61 23.01" enable-background="new 0 0 23.61 23.01" xml:space="preserve">
	<path fill="#0096FF" fill-opacity="1" fill-rule="evenodd" stroke-width="0.2" stroke-linejoin="round" d="M 11.8041,2.28882e-005C 5.28534,2.28882e-005 0,5.28536 0,11.8056C 0,17.0214 3.38226,21.4458 8.07336,23.0075C 8.664,23.1155 8.87927,22.751 8.87927,22.4379C 8.87927,22.1582 8.86908,21.4154 8.86328,20.4304C 5.57959,21.1436 4.88672,18.8477 4.88672,18.8477C 4.34979,17.4845 3.57581,17.1214 3.57581,17.1214C 2.50391,16.3888 3.65692,16.4032 3.65692,16.4032C 4.8418,16.4873 5.46509,17.62 5.46509,17.62C 6.51807,19.4238 8.22845,18.9028 8.901,18.6013C 9.00824,17.8382 9.31262,17.3178 9.65033,17.0229C 7.02899,16.725 4.27295,15.7119 4.27295,11.1882C 4.27295,9.89962 4.73315,8.84591 5.48828,8.02047C 5.36658,7.72189 4.96143,6.52175 5.60352,4.8962C 5.60352,4.8962 6.59491,4.57882 8.85022,6.10647C 9.79163,5.84481 10.8019,5.71371 11.8056,5.70931C 12.8079,5.71371 13.8181,5.84481 14.761,6.10647C 17.0148,4.57882 18.0041,4.8962 18.0041,4.8962C 18.6484,6.52175 18.2433,7.72189 18.1215,8.02047C 18.8781,8.84591 19.3354,9.89962 19.3354,11.1882C 19.3354,15.7235 16.575,16.7213 13.945,17.0134C 14.3689,17.378 14.7465,18.0984 14.7465,19.1999C 14.7465,20.7776 14.7321,22.0509 14.7321,22.4379C 14.7321,22.7539 14.9443,23.1213 15.5437,23.0061C 20.2311,21.4414 23.6105,17.02 23.6105,11.8056C 23.6105,5.28536 18.3244,2.28882e-005 11.8041,2.28882e-005 Z "/>
</svg>
