<?xml version="1.0" encoding="utf-8"?>
<!DOCTYPE svg PUBLIC "-//W3C//DTD SVG 1.1//EN" "http://www.w3.org/Graphics/SVG/1.1/DTD/svg11.dtd">
<svg xmlns="http://www.w3.org/2000/svg" xmlns:xlink="http://www.w3.org/1999/xlink" version="1.1" baseProfile="full" width="154" height="154" viewBox="0 0 154.00 154.00" enable-background="new 0 0 154.00 154.00" xml:space="preserve">
	<g>
		<filter id="Filter_DropShadow1_" filterUnits="userSpaceOnUse">
			<feGaussianBlur in="SourceAlpha" stdDeviation="2" result="blur"/>
			<feOffset dx="-3.2729e-016" dy="1.78169" in="blur" result="offsetBlurredAlpha"/>
			<feMerge>
				<feMergeNode in="offsetBlurredAlpha"/>
				<feMergeNode in="SourceGraphic"/>
			</feMerge>
		</filter>
		<path fill="#3D3D3D" fill-opacity="0.701961" stroke-width="7" stroke-linejoin="round" stroke="#3D3D3D" stroke-opacity="1" filter="url(#Filter_DropShadow1_)" d="M 88.5862,6.00006C 122.874,6.00006 146.173,29.2983 146.173,63.5864L 146.173,86.9109L 146.128,89.4885C 144.988,122.361 122.008,144.497 88.5862,144.497L 65.7414,144.497C 31.4534,144.497 8.15509,121.948 8.15509,87.6604L 8.15509,62.8367C 8.15509,29.5726 30.0828,7.35706 62.6996,6.06006L 65.7414,6L 88.5862,6.00006 Z "/>
		<g>
			<g>
				<path fill="#FFFFFF" fill-opacity="1" stroke-linejoin="round" stroke="#FFFFFF" stroke-opacity="1" d="M 40.749,88.4417C 40.749,88.4418 43.0025,62.6295 79.1806,62.6295C 115.359,62.6295 117.612,88.4418 117.612,88.4418C 117.612,88.4418 123.423,58.6143 79.1806,58.6143C 34.9385,58.6143 40.749,88.4418 40.749,88.4417 Z "/>
				<path fill="none" stroke-width="4" stroke-linejoin="round" stroke="#FFFFFF" stroke-opacity="1" d="M 44.8738,77.8488C 49.0845,85.9008 63.3242,91.8833 79.1806,91.8833C 95.3618,91.8833 109.859,85.6531 113.733,77.3513C 113.007,76.2346 112.212,75.2245 111.374,74.3114C 108.706,82.0123 95.3074,87.8682 79.1806,87.8682C 63.2814,87.8682 50.0343,82.1765 47.1066,74.6362C 46.2233,75.8087 45.4766,76.9066 44.8738,77.8488 Z "/>
				<path fill="none" stroke-width="0.2" stroke-linejoin="round" stroke="#FFFFFF" stroke-opacity="1" d="M 30.9975,80.1245C 30.9975,61.2752 52.056,45.9949 78.0331,45.9949C 104.01,45.9949 125.069,61.2752 125.069,80.1245"/>
				<path fill="none" stroke-width="3" stroke-linejoin="round" stroke="#FFFFFF" stroke-opacity="1" d="M 125.716,80.3658C 125.716,99.2151 104.01,114.254 78.0331,114.254C 52.056,114.254 30.9975,98.9736 30.9975,80.1245"/>
				<g>
					<defs>
						<path id="SVG_CLIPPER1_" d="M 30.4239,75.2487C 30.4239,50.5388 51.8677,30.5074 78.32,30.5074C 104.772,30.5074 126.216,50.5388 126.216,75.2487C 126.216,99.9585 104.772,119.99 78.32,119.99C 51.8677,119.99 30.4239,99.9585 30.4239,75.2487 Z "/>
					</defs>
					<clipPath id="SVG_CLIPPER2_">
						<use xlink:href="#SVG_CLIPPER1_" overflow="visible"/>
					</clipPath>
					<g clip-path="url(#SVG_CLIPPER2_)">
						<path fill="#FFFFFF" fill-opacity="1" fill-rule="evenodd" stroke-width="0.2" stroke-linejoin="round" d="M 45.878,55.5873C 46.3505,56.582 46.6206,57.4697 46.6882,58.2503C 46.7873,59.2347 46.4375,60.0021 45.6387,60.5526C 45.1407,60.9703 44.573,61.0958 43.9357,60.929C 43.2985,60.7622 42.7364,60.3519 42.2496,59.6981C 42.0767,59.4661 41.9355,59.1443 41.8259,58.733L 40.6194,59.8307C 40.7699,60.3931 40.9851,60.8621 41.265,61.238C 42.0809,62.0389 42.9021,62.4758 43.7284,62.5486C 44.5547,62.6215 45.4038,62.3506 46.2756,61.7359C 47.4409,60.7004 47.9595,59.5236 47.8315,58.2056C 47.7268,57.2067 47.3868,56.1246 46.8114,54.9593"/>
						<path fill="#FFFFFF" fill-opacity="1" fill-rule="evenodd" stroke-width="0.2" stroke-linejoin="round" d="M 46.8114,54.9593C 46.654,54.6404 46.4789,54.3152 46.2861,53.9838L 46.1593,53.9377L 44.5071,54.3873L 44.7104,54.8242C 44.9467,55.1415 45.2643,55.2516 45.6631,55.1545C 45.7388,55.301 45.8105,55.4453 45.878,55.5873"/>
						<path fill="#FFFFFF" fill-opacity="1" fill-rule="evenodd" stroke-width="0.2" stroke-linejoin="round" d="M 58.5728,49.3926C 58.9763,51.5471 59.2213,53.7122 59.3078,55.8876C 59.4435,59.2966 59.2634,62.7867 58.7675,66.3579C 58.6576,66.5861 58.5362,66.7229 58.4033,66.7684C 58.276,66.8121 58.1648,66.7943 58.0697,66.7151C 57.9745,66.6359 57.8951,66.5036 57.8315,66.3184C 57.9361,64.7702 57.9969,63.1816 58.0141,61.5525C 58.0313,59.9235 57.9878,58.3005 57.8837,56.6839C 57.7796,55.0671 57.6126,53.4605 57.3826,51.864C 57.2865,51.1974 57.1754,50.5372 57.049,49.8832"/>
						<path fill="#FFFFFF" fill-opacity="1" fill-rule="evenodd" stroke-width="0.2" stroke-linejoin="round" d="M 92.2378,47.8834C 92.1864,47.9785 92.1316,48.0692 92.0732,48.1556C 91.763,48.6141 91.3884,48.9644 90.9494,49.2062C 90.5104,49.4481 90.0304,49.6012 89.5094,49.6658C 88.9883,49.7303 88.4464,49.718 87.8837,49.6287C 87.4264,49.5561 86.9914,49.429 86.5785,49.2473C 86.1656,49.0656 85.8047,48.834 85.4958,48.5526C 85.1869,48.2712 84.952,47.9275 84.7911,47.5213C 84.6863,47.2567 84.6336,46.9651 84.633,46.6465L 82.9723,46.4767C 82.989,46.8592 83.0625,47.2195 83.1928,47.5577C 83.4177,48.1412 83.7605,48.6539 84.2213,49.0956C 84.6821,49.5372 85.2323,49.901 85.872,50.1868C 86.5118,50.4727 87.197,50.6735 87.9278,50.7895C 88.6058,50.8971 89.2598,50.8912 89.8897,50.7718C 90.5196,50.6524 91.0933,50.4174 91.6106,50.0668C 92.128,49.7162 92.5628,49.2549 92.915,48.6827C 93.0213,48.5101 93.1174,48.3268 93.2032,48.1328"/>
						<path fill="#FFFFFF" fill-opacity="1" fill-rule="evenodd" stroke-width="0.2" stroke-linejoin="round" d="M 111.468,56.4684C 111.327,56.6078 111.181,56.7354 111.03,56.851C 110.497,57.2598 109.926,57.5356 109.318,57.6786C 108.71,57.8215 108.09,57.8364 107.459,57.7232C 106.828,57.61 106.215,57.3822 105.62,57.0399C 104.978,56.6708 104.41,56.2386 103.914,55.7434C 103.419,55.2482 103.034,54.7121 102.761,54.1351C 102.489,53.558 102.351,52.9568 102.349,52.3315C 102.348,51.986 102.403,51.6403 102.512,51.2942L 104.021,51.9911C 103.907,52.29 103.852,52.5822 103.855,52.8677C 103.861,53.3045 103.958,53.7095 104.146,54.0825C 104.334,54.4556 104.588,54.8007 104.909,55.1177C 105.23,55.4348 105.591,55.7087 105.993,55.9396C 106.487,56.2238 106.988,56.4287 107.498,56.5543C 108.008,56.6799 108.511,56.708 109.007,56.6387C 109.504,56.5694 109.979,56.3759 110.432,56.0581C 110.508,56.0046 110.583,55.9467 110.657,55.8846"/>
						<path fill="#FFFFFF" fill-opacity="1" fill-rule="evenodd" stroke-width="0.2" stroke-linejoin="round" d="M 29.9681,57.7155C 30.1818,57.4803 30.5426,57.4603 31.0505,57.6554L 31.1929,57.0664C 31.0828,57.0053 30.9734,56.9514 30.8648,56.9046L 30.8586,56.9127L 30.8182,56.8849C 30.421,56.7211 30.0343,56.6533 29.6583,56.6818C 29.5326,57.1182 29.5548,57.401 29.7248,57.5304L 29.9681,57.7155 Z "/>
						<path fill="#FFFFFF" fill-opacity="1" fill-rule="evenodd" stroke-width="0.2" stroke-linejoin="round" d="M 29.9484,56.3618L 30.262,56.5035L 30.8648,56.9046L 31.216,56.4431C 31.1956,56.4094 31.1759,56.376 31.1567,56.3428C 30.8502,56.0386 30.6577,55.8234 30.5792,55.697L 30.2703,55.1375C 29.8428,54.9937 29.532,55.0493 29.3379,55.3043C 29.1522,55.5483 29.183,55.864 29.4304,56.2511L 29.7117,56.3029L 29.9484,56.3618 Z "/>
						<path fill="#FFFFFF" fill-opacity="1" fill-rule="evenodd" stroke-width="0.2" stroke-linejoin="round" d="M 31.1567,56.3428C 31.1759,56.376 31.1956,56.4094 31.216,56.4431L 31.2342,56.4191C 31.2076,56.3931 31.1818,56.3676 31.1567,56.3428 Z "/>
						<path fill="#FFFFFF" fill-opacity="1" fill-rule="evenodd" stroke-width="0.2" stroke-linejoin="round" d="M 66.8675,47.2556C 66.9097,47.9757 66.9239,48.6956 66.91,49.4154C 66.8788,51.04 66.7557,52.6475 66.5406,54.2371C 66.3256,55.8266 66.0452,57.4009 65.6992,58.9598C 65.3533,60.5187 64.9854,62.0366 64.5956,63.5133C 64.6553,63.6902 64.7356,63.8103 64.8366,63.8736C 64.9377,63.9369 65.0448,63.9597 65.1582,63.942L 65.4925,63.8896C 65.9778,62.4601 66.4021,61.0181 66.7654,59.5635C 67.1286,58.109 67.4334,56.6486 67.6797,55.1823C 67.926,53.7161 68.1058,52.2602 68.2192,50.8147C 68.323,49.491 68.3648,48.2349 68.3445,47.0464"/>
						<path fill="#FFFFFF" fill-opacity="1" fill-rule="evenodd" stroke-width="0.2" stroke-linejoin="round" d="M 36.4368,64.6772C 36.904,65.1491 37.3622,65.6346 37.8114,66.1336C 38.8904,67.3326 39.9227,68.575 40.9084,69.8607C 41.894,71.1464 42.8327,72.4709 43.7244,73.8344C 44.4132,74.8876 45.0669,75.9352 45.6856,76.9773C 45.8981,76.6656 46.1175,76.3486 46.3373,76.0378C 44.9343,73.3154 43.3716,70.7718 41.6491,68.4069C 40.3586,66.6349 38.9404,64.9612 37.3947,63.3857"/>
					</g>
					<ellipse fill="none" stroke-width="7" stroke-linejoin="round" stroke="#FFFFFF" stroke-opacity="1" cx="78.32" cy="75.2487" rx="47.8961" ry="44.7412"/>
				</g>
				<path fill="#000000" fill-opacity="1" fill-rule="evenodd" stroke-width="0.2" stroke-linejoin="round" d="M 30.8182,56.8849L 30.8587,56.9127L 30.8182,56.8849 Z "/>
				<path fill="#000000" fill-opacity="1" fill-rule="evenodd" stroke-width="0.2" stroke-linejoin="round" d="M 56.7142,40.2883L 56.7324,40.3339L 56.7142,40.2883 Z "/>
				<path fill="#000000" fill-opacity="1" fill-rule="evenodd" stroke-width="0.2" stroke-linejoin="round" d="M 57.2971,40.0261C 57.2946,40.0643 57.2924,40.1031 57.2905,40.1423L 57.319,40.1326C 57.3114,40.0961 57.3042,40.0606 57.2971,40.0261 Z "/>
				<path fill="#000000" fill-opacity="1" fill-rule="evenodd" stroke-width="0.2" stroke-linejoin="round" d="M 73.8861,44.7183C 73.92,44.6089 73.9276,44.4942 73.9088,44.3741C 73.904,44.3439 73.814,44.2635 73.6388,44.1329C 73.7062,44.3323 73.7887,44.5275 73.8861,44.7183 Z "/>
			</g>
			<path fill="#FFFFFF" fill-opacity="1" stroke-width="0.2" stroke-linejoin="round" stroke="#FFFFFF" stroke-opacity="1" d="M 124.997,67.0278C 124.009,67.4916 123.015,67.8992 122.014,68.2505C 120.307,64.9653 117.921,61.9215 114.981,59.209C 115.254,59.3914 115.543,59.5248 115.849,59.6088C 116.306,59.7344 116.773,59.7625 117.25,59.6929C 117.727,59.6235 118.19,59.4689 118.639,59.2292C 119.088,58.9896 119.497,58.6655 119.865,58.257C 120.13,57.9631 120.304,57.6331 120.387,57.2667C 120.469,56.9002 120.467,56.5212 120.379,56.1293C 120.292,55.7373 120.126,55.3505 119.883,54.9687C 119.64,54.5869 119.345,54.2397 118.998,53.9271C 118.256,53.2581 117.477,52.9197 116.661,52.9122C 115.844,52.9048 115.067,53.2345 114.33,53.9017C 113.958,54.3145 113.692,54.7432 113.534,55.1878C 113.376,55.6323 113.311,56.0759 113.341,56.5184C 113.371,56.9609 113.492,57.3832 113.703,57.7856C 113.836,58.0382 114.002,58.2792 114.201,58.5084C 113.36,57.7725 112.476,57.0627 111.554,56.381C 111.876,56.0447 112.172,55.6437 112.44,55.1781C 112.632,54.8437 112.714,54.5022 112.685,54.1536C 112.657,53.8049 112.368,53.4726 111.819,53.1569C 111.322,52.8707 110.879,52.7897 110.492,52.9136C 110.104,53.0376 109.835,53.2316 109.683,53.4957C 109.538,53.7478 109.479,54.0233 109.507,54.3223C 109.534,54.6213 109.697,54.8907 109.995,55.1306C 110.204,55.2164 110.365,55.2603 110.479,55.262C 110.593,55.2638 110.679,55.2158 110.735,55.1182L 110.68,54.8689L 110.574,54.4639C 110.548,54.2869 110.6,54.0852 110.73,53.8589C 110.809,53.7217 110.915,53.6253 111.049,53.5698C 111.183,53.5142 111.333,53.5348 111.501,53.6315C 111.7,53.746 111.809,53.8844 111.827,54.0468C 111.846,54.2092 111.786,54.4104 111.648,54.6505C 111.377,55.1216 111.078,55.5055 110.751,55.8021C 108.697,54.3549 106.462,53.0426 104.072,51.8848L 104.251,51.5104C 104.461,51.1451 104.691,50.8174 104.94,50.5271C 105.19,50.2368 105.502,49.97 105.879,49.7266C 106.255,49.4831 106.711,49.2592 107.246,49.0549C 107.781,48.8505 108.404,48.6716 109.113,48.5181L 109.841,49.1218L 110.718,49.8545L 111.646,50.5716L 112.583,51.1862L 113.265,51.4177C 113.619,51.5163 114.021,51.5858 114.472,51.6259C 114.922,51.6661 115.393,51.6439 115.883,51.5596C 116.373,51.4754 116.825,51.2557 117.24,50.9006L 116.789,50.6821L 116.512,50.6772L 115.591,50.7549C 115.31,50.7676 115.069,50.7575 114.869,50.7245L 114.261,50.558L 113.573,50.2219C 113.194,50.0038 112.803,49.7376 112.399,49.4232L 111.196,48.4348L 110.098,47.4877L 109.373,46.9288C 109.895,46.7014 110.464,46.487 111.082,46.2857C 111.7,46.0844 112.32,45.9193 112.941,45.7903L 113.988,45.6003C 119.632,51.4949 123.627,58.795 125.299,66.8692L 124.997,67.0278 Z M 125.624,68.6292C 125.985,70.8419 126.171,73.1079 126.171,75.4148L 125.024,80.2903C 125.024,76.5868 124.211,73.021 122.708,69.6819C 123.661,69.3734 124.621,69.0233 125.589,68.6316 Z M 77.9883,46.161L 75.6772,46.2015C 76.2352,46.1238 76.7772,45.9342 77.303,45.6328C 77.8474,45.3206 78.2767,44.9005 78.591,44.3725L 78.2718,45.9878L 80.101,45.8236C 80.1775,45.433 80.2381,44.9579 80.2829,44.3984L 80.4104,42.3832C 80.4294,41.9833 80.4922,41.6066 80.5988,41.2531C 80.7054,40.8997 80.8618,40.6565 81.0679,40.5234L 80.8458,39.3093C 79.8474,39.7129 79.2314,40.1564 78.9978,40.64L 78.7069,43.1394L 77.951,43.7152L 77.3073,44.2408C 77.1053,44.3906 76.9034,44.5087 76.7016,44.5952C 76.4998,44.6817 76.2733,44.7264 76.0221,44.7294C 75.8025,44.732 75.6092,44.6645 75.4424,44.5271C 75.2756,44.3895 75.1372,44.1953 75.0274,43.9443C 74.9176,43.6934 74.8422,43.4197 74.801,43.1234L 74.7348,42.2991C 74.7309,41.9609 74.7886,41.658 74.9081,41.3904C 75.0276,41.1229 75.2101,40.9155 75.4557,40.7681C 75.7437,41.0278 75.9935,41.1564 76.2053,41.154C 76.4565,41.151 76.5803,40.9991 76.5767,40.6984L 76.5231,40.4245L 76.4008,40.1248L 76.228,39.8284L 75.905,39.3679C 75.3889,39.5599 74.9819,39.7661 74.6837,39.9863C 74.3856,40.2065 74.1433,40.4646 73.9569,40.7607C 73.7704,41.0567 73.6318,41.3803 73.541,41.7316C 73.4502,42.0829 73.4069,42.4316 73.411,42.7779C 73.4166,43.2498 73.4924,43.7017 73.6384,44.1333L 73.504,44.0353C 72.9538,44.6279 72.4297,44.9511 71.9314,45.0051C 72.18,44.4816 72.354,43.9357 72.4533,43.3676C 72.5527,42.7994 72.5683,42.2973 72.5002,41.8614C 72.458,41.5917 72.3673,41.3349 72.2281,41.0914C 72.0888,40.8478 71.9226,40.6335 71.7296,40.4485C 71.5364,40.2634 71.3124,40.1182 71.0577,40.0129C 70.8029,39.9075 70.5445,39.8753 70.2827,39.9163L 70.2211,39.9259C 69.6069,40.3143 69.0791,40.7098 68.6374,41.1122C 68.1957,41.5147 67.8821,41.8526 67.6966,42.126C 67.5164,41.5374 67.1831,41.0447 66.6965,40.6484C 65.7818,40.7914 65.0115,40.9749 64.3857,41.1989C 63.7599,41.423 63.2319,41.7028 62.8018,42.0383C 62.647,42.2007 62.5735,42.3074 62.5816,42.3582C 62.6152,42.5732 62.8329,42.6853 63.2349,42.6945L 64.167,42.2784C 64.4333,42.1627 64.6944,42.0848 64.9505,42.0447C 65.2456,41.9986 65.5113,42.0071 65.7474,42.0703C 65.8698,42.2254 66.015,42.5261 66.1828,42.9724C 66.3508,43.4187 66.4815,43.941 66.5751,44.5391C 66.7097,45.4002 66.8044,46.2612 66.859,47.1221C 63.9718,47.6303 61.1886,48.3319 58.5372,49.2068C 58.3152,48.0477 58.0473,46.8917 57.7334,45.7386L 58.166,45.0975L 58.627,44.384L 59.1193,43.8024C 59.2924,43.6332 59.4893,43.5108 59.7101,43.4349C 59.9815,43.3418 60.2232,43.4095 60.4355,43.6378C 60.6477,43.8662 60.8239,44.1844 60.9638,44.5923L 61.1277,45.184L 61.2359,45.8466L 61.2383,46.4937C 61.2161,46.7 61.1901,46.7904 61.1604,46.765C 61.0058,46.7533 60.8341,46.7798 60.645,46.8447C 60.3718,46.9384 60.2696,47.0854 60.3383,47.2857C 60.4243,47.5364 60.7297,47.8625 61.2545,48.2639C 61.6868,48.0548 61.9777,47.7521 62.1272,47.3557C 62.2767,46.9592 62.363,46.539 62.3863,46.0949C 62.4096,45.6508 62.3868,45.2141 62.3179,44.7849C 62.249,44.3557 62.1661,43.9998 62.0691,43.7172C 61.9729,43.4365 61.8504,43.1789 61.7019,42.9443C 61.5534,42.7097 61.3807,42.505 61.1836,42.33C 60.9865,42.155 60.7554,42.0194 60.4902,41.9232C 60.225,41.827 59.8584,41.7431 59.3904,41.6716C 58.8774,42.3099 58.4368,42.8972 58.0687,43.4336C 57.7005,43.9699 57.4616,44.4043 57.352,44.7369C 57.0163,44.0635 56.5366,43.586 55.9128,43.3044C 54.9959,43.6191 54.2495,43.9412 53.6732,44.2706C 53.0971,44.6002 52.6306,44.9674 52.2738,45.3722C 52.1471,45.5453 52.094,45.6619 52.1146,45.7217C 52.1852,45.9276 52.4099,46.0032 52.7885,45.9485L 52.8857,45.912L 53.6631,45.3659C 53.9042,45.2058 54.1473,45.0837 54.3924,44.9996C 54.675,44.9026 54.9381,44.8647 55.1817,44.8856C 55.3292,45.017 55.5247,45.2881 55.7683,45.6992C 56.0119,46.1103 56.2329,46.605 56.4314,47.1832C 56.6536,48.0219 56.8495,48.8714 57.0191,49.7319C 51.1262,51.8651 45.9369,54.8694 41.7717,58.5123C 41.6566,57.9968 41.5846,57.3594 41.5554,56.6003C 41.5135,55.6595 41.5586,54.6898 41.6906,53.6912C 41.8226,52.6926 42.0397,51.6293 42.3419,50.5014C 42.3323,50.3063 42.2897,50.158 42.2141,50.0565C 42.1515,49.9724 41.92,49.9646 41.5197,50.0333L 40.8795,52.5673L 40.4666,54.2438C 40.2977,54.2388 40.0683,54.1254 39.7784,53.9034C 39.4885,53.6815 39.229,53.4165 38.9997,53.1087C 38.7433,52.7643 38.5317,52.264 38.3648,51.6075L 38.2053,50.8959C 46.7634,38.7164 61.5138,30.6738 78.2751,30.6738C 92.0942,30.6738 104.546,36.1406 113.288,44.8855L 111.883,45.2236L 110.126,45.7787C 109.571,45.9788 109.109,46.1678 108.74,46.3456C 108.568,46.2469 108.262,46.1219 107.821,45.9706C 107.379,45.8194 106.9,45.6891 106.383,45.58C 105.866,45.4708 105.353,45.3953 104.844,45.3535C 104.335,45.3118 103.892,45.3223 103.513,45.3853L 103.33,45.451L 103.12,45.5737C 103.02,45.7485 103.062,45.8893 103.247,45.9958L 103.326,46.0204L 105.035,46.3279L 106.366,46.6811L 107.123,46.992L 107.874,47.3809L 108.72,47.8679C 107.133,48.0479 105.855,48.3655 104.886,48.8206C 103.918,49.2757 103.252,49.8196 102.888,50.4523C 102.748,50.6946 102.636,50.9366 102.551,51.1785C 99.647,49.8859 96.5349,48.8155 93.2596,48.0001C 93.4291,47.5854 93.554,47.1246 93.6346,46.6174C 93.695,46.2365 93.6496,45.8882 93.4984,45.5728C 93.3471,45.2573 92.9588,45.0499 92.3336,44.9507C 91.7669,44.8608 91.3247,44.9428 91.007,45.1968C 90.6892,45.451 90.5065,45.7285 90.4587,46.0294C 90.4131,46.3167 90.4566,46.5949 90.5891,46.8644C 90.7217,47.1338 90.9699,47.3275 91.3337,47.4453C 91.5592,47.4509 91.7256,47.4343 91.833,47.3953C 91.9404,47.3563 92.0029,47.281 92.0205,47.1697L 91.8801,46.9565L 91.6366,46.6159C 91.5492,46.4598 91.526,46.2529 91.5669,45.9949C 91.5918,45.8386 91.6566,45.7106 91.7615,45.6111C 91.8664,45.5116 92.0147,45.4771 92.2062,45.5074C 92.4329,45.5434 92.5837,45.634 92.6589,45.7791C 92.7339,45.9241 92.7498,46.1335 92.7064,46.4071C 92.6236,46.9286 92.4871,47.3826 92.2967,47.7689C 89.8283,47.1976 87.2713,46.7701 84.6447,46.5001L 84.6764,46.1124C 84.7424,45.6962 84.84,45.308 84.9694,44.9479C 85.0986,44.5879 85.2955,44.2271 85.5602,43.8654C 85.825,43.5038 86.1709,43.1319 86.5981,42.7501C 87.0253,42.3682 87.5427,41.9789 88.1505,41.5826L 89.0458,41.887L 90.1271,42.2584L 91.2497,42.5972L 92.3444,42.8371L 93.0639,42.81C 93.4299,42.7759 93.8305,42.6972 94.2657,42.574C 94.7009,42.4507 95.1325,42.2624 95.5603,42.0088C 95.9881,41.7551 96.3322,41.3886 96.5927,40.909L 96.0932,40.8659L 95.8334,40.9598L 95.0005,41.3611C 94.7423,41.4733 94.5139,41.5497 94.3151,41.5903L 93.6879,41.6516L 92.925,41.5831C 92.4933,41.5145 92.0328,41.4054 91.5437,41.2557L 90.0672,40.7615L 88.7031,40.2686L 87.827,40.0049C 88.2328,39.6066 88.6884,39.2031 89.1939,38.7945C 89.6995,38.3859 90.2192,38.0107 90.7532,37.6688C 91.2872,37.3268 91.8101,37.0242 92.3216,36.7608C 92.8331,36.4974 93.311,36.2788 93.7553,36.1049L 94.5948,35.861C 94.8943,35.7974 95.1623,35.7843 95.3987,35.8218C 95.6293,35.8584 95.7912,35.9647 95.8845,36.1408C 95.9777,36.3168 96.009,36.5016 95.9783,36.695C 95.933,36.9803 95.8118,37.2175 95.6145,37.4065C 95.4172,37.5956 95.2091,37.6226 94.9902,37.4877C 94.9109,37.5833 94.8169,37.5664 94.7082,37.437C 94.5996,37.3076 94.557,37.1627 94.5804,37.0021C 94.6073,36.8961 94.6558,36.8082 94.726,36.7382L 94.8694,36.6393L 95.0076,36.7438C 95.0547,36.8064 95.0896,36.9557 95.1123,37.1916C 95.5981,37.1465 95.8635,36.9833 95.9081,36.7019C 95.9267,36.5848 95.8682,36.4322 95.7329,36.2444C 95.5973,36.0567 95.3987,35.9421 95.1368,35.9005C 94.791,35.8456 94.5033,35.8947 94.2737,36.0475C 94.0442,36.2003 93.9054,36.4272 93.8577,36.7281C 93.7873,37.1717 93.8746,37.524 94.1196,37.7853C 94.3647,38.0466 94.66,38.2045 95.006,38.2595C 95.1994,38.2902 95.4071,38.2746 95.6293,38.2126C 95.8515,38.1508 96.066,38.0521 96.2728,37.9166C 96.4796,37.7812 96.6604,37.61 96.8155,37.4033C 96.9704,37.1965 97.0759,36.9554 97.1316,36.6797C 97.1628,36.4202 97.1372,36.1898 97.0549,35.9885C 96.9728,35.7872 96.8546,35.6072 96.7004,35.4485C 96.5464,35.2899 96.3587,35.1629 96.1374,35.0676C 95.9161,34.9724 95.7048,34.9089 95.5036,34.877C 95.1519,34.8212 94.7384,34.8611 94.2631,34.9971C 93.7878,35.133 93.2919,35.3232 92.7753,35.5677C 92.2587,35.8124 91.7233,36.1035 91.1688,36.4412C 90.6145,36.7789 90.0794,37.1371 89.5636,37.516L 88.1198,38.6616C 87.6731,39.0464 87.309,39.3878 87.0273,39.6856C 86.8319,39.6546 86.501,39.6472 86.0348,39.6634C 85.5684,39.6796 85.0744,39.7288 84.5525,39.8113C 84.0306,39.8937 83.5245,40.0062 83.0341,40.1487C 82.5438,40.2913 82.133,40.4595 81.8017,40.6533L 81.6539,40.7801L 81.5022,40.9693C 81.4706,41.1686 81.5602,41.2851 81.7713,41.3185L 81.8532,41.3135L 83.56,40.9909L 84.9291,40.8461L 85.7477,40.8663L 86.5874,40.962L 87.5517,41.115C 86.1331,41.8494 85.0526,42.6019 84.3104,43.3726C 83.5681,44.1432 83.1398,44.889 83.0253,45.61L 82.9685,46.35C 81.332,46.225 79.6705,46.161 77.9883,46.161 Z M 73.6384,44.1333L 73.9084,44.3746C 73.9272,44.4946 73.9196,44.6093 73.8857,44.7188L 73.6384,44.1333 Z M 73.8857,44.7188L 73.9549,44.8489C 74.3065,45.4856 74.8561,45.9373 75.6037,46.2041C 73.1273,46.2938 70.7014,46.5225 68.3405,46.8797L 68.3369,46.7206L 69.583,46.5258L 71.31,46.2557L 71.9476,46.0779C 72.2396,45.9802 72.5313,45.8514 72.8228,45.6917C 73.1142,45.532 73.3789,45.3419 73.6167,45.1215C 73.7517,44.9964 73.8414,44.8622 73.8857,44.7188 Z M 30.9527,80.2905L 30.3791,75.415C 30.3791,74.323 30.421,73.2403 30.5033,72.168C 30.8381,72.1385 31.1559,72.0612 31.4568,71.9359C 31.8662,71.7653 32.2275,71.5153 32.5405,71.1859L 32.7267,70.9735C 31.5711,73.9351 30.9527,77.0604 30.9527,80.2905 Z M 40.3724,56.8004C 40.3236,57.9008 40.3878,58.8382 40.5651,59.6128C 39.3556,60.7635 38.2446,61.9717 37.2413,63.2307C 36.4278,62.4095 35.5795,61.6152 34.6961,60.8477L 34.6991,60.0744L 34.6854,59.2249L 34.771,58.4678C 34.8208,58.2309 34.9163,58.0196 35.0578,57.8338C 35.2314,57.6055 35.47,57.5272 35.7734,57.599C 36.0768,57.6707 36.4001,57.8372 36.7434,58.0984L 37.2086,58.499L 37.6669,58.9895L 38.0288,59.5259C 38.1251,59.7097 38.1539,59.7993 38.1151,59.7947C 37.98,59.871 37.8519,59.9886 37.7309,60.1476C 37.5561,60.3775 37.5528,60.5565 37.7213,60.6848C 37.9323,60.8453 38.3675,60.9464 39.0268,60.9882C 39.2698,60.574 39.3433,60.1606 39.247,59.748C 39.1508,59.3354 38.9888,58.9382 38.7612,58.5562C 38.5335,58.174 38.2717,57.8239 37.9758,57.5054C 37.6799,57.187 37.413,56.9373 37.1753,56.7565C 36.9391,56.5767 36.6941,56.4307 36.4402,56.3183C 36.1864,56.206 35.9289,56.1318 35.6678,56.096C 35.4682,56.0685 35.2647,56.0715 35.0576,56.1044C 35.7212,54.811 36.4493,53.5519 37.2381,52.3309L 37.5232,53.322C 37.6703,53.7515 37.8449,54.1019 38.047,54.3732C 38.1817,54.5541 38.3635,54.7238 38.5928,54.8825C 38.8219,55.0411 39.065,55.1764 39.3223,55.2883C 39.5795,55.4002 39.8327,55.4769 40.0818,55.5182C 40.3309,55.5596 40.4879,55.5575 40.5525,55.5118C 40.487,55.6888 40.4437,55.8834 40.4226,56.0951L 40.3724,56.8004 Z M 50.6095,45.5847C 50.5294,45.926 50.487,46.2139 50.4824,46.4484L 50.8736,47.7665L 51.2409,48.8088L 51.5626,49.8619L 51.7889,50.7903L 52.001,51.6765L 53.5489,50.9077L 53.1579,49.7556L 52.6331,48.2179L 52.161,46.5912C 52.0198,46.0513 51.9638,45.6239 51.9928,45.309L 51.3427,44.3327C 50.9339,44.826 50.6896,45.2433 50.6095,45.5847 Z M 49.8172,40.9791L 49.1391,40.6719C 48.9362,40.9483 48.8139,41.2203 48.7721,41.4879C 48.7303,41.7553 48.7832,42.0523 48.9308,42.3785L 49.2511,42.9208C 49.384,43.104 49.5993,43.316 49.8972,43.5569L 50.3879,42.7192C 50.4164,42.4414 50.4145,42.1996 50.3822,41.9938C 50.3499,41.788 50.2999,41.6104 50.2322,41.4608C 50.1326,41.2408 49.9944,41.0803 49.8172,40.9791 Z M 66.0805,38.6586C 65.6735,38.8795 65.3924,39.2233 65.2371,39.6901L 66.0243,39.4423L 67.0899,39.2261L 67.7022,39.1559L 68.4606,39.1079L 69.266,39.0526L 70.0014,38.963L 70.7112,38.8055C 70.981,38.7322 71.2443,38.6355 71.5008,38.5153C 71.7574,38.3951 71.9869,38.2491 72.1893,38.0772C 72.3917,37.9054 72.504,37.6155 72.5263,37.2076C 72.2391,37.4327 71.9586,37.5882 71.6847,37.6741L 70.9131,37.8593L 70.2298,37.9362L 69.3856,38.0021L 68.465,38.0799L 67.5383,38.1948C 66.9734,38.2831 66.4875,38.4377 66.0805,38.6586 Z M 68.6378,36.7162C 68.6303,36.9497 68.6636,37.304 68.7377,37.7789L 69.5882,37.5498L 69.6876,36.86L 69.6719,36.2993C 69.631,36.0373 69.5051,35.8087 69.2944,35.6133C 69.0735,35.6479 68.9282,35.7117 68.8586,35.8046C 68.7891,35.8976 68.7368,36.0144 68.7017,36.1551L 68.6378,36.7162 Z M 55.5455,40.5062C 55.8538,40.4297 56.1648,40.6137 56.4785,41.0582L 56.9244,40.6479L 56.7417,40.331L 57.2902,40.1428L 57.2968,40.0265C 57.2112,39.6032 57.1709,39.3172 57.1759,39.1686L 57.2303,38.5318C 56.955,38.1745 56.6658,38.0478 56.3627,38.1519C 56.0726,38.2514 55.9227,38.5308 55.913,38.9902L 56.118,39.1896L 56.282,39.3702L 56.4638,39.6624L 56.7417,40.331L 56.7321,40.3343L 56.7139,40.2887C 56.4749,39.9316 56.1912,39.6603 55.8629,39.4748C 55.5158,39.7676 55.3769,40.015 55.4462,40.2171L 55.5455,40.5062 Z M 34.4174,62.7724C 35.0501,63.3296 35.6679,63.9091 36.2708,64.5112C 35.225,65.964 34.3191,67.4782 33.566,69.0444L 33.5771,68.5676C 33.549,68.0946 33.4255,67.6435 33.2061,67.2142C 32.9873,66.7849 32.6921,66.3962 32.3208,66.0479C 32.0935,65.8347 31.8411,65.646 31.5637,65.4819C 31.8719,64.2117 32.2379,62.9621 32.6591,61.7357L 33.0411,61.9078C 33.4721,62.114 33.9309,62.4022 34.4174,62.7724 Z M 33.822,60.2273L 33.3043,59.9835L 33.6927,59.0298C 33.6993,59.5419 33.7423,59.941 33.822,60.2273 Z M 32.1725,70.2957C 31.6913,70.5932 31.1821,70.7189 30.645,70.6727C 30.7808,69.4677 30.968,68.2767 31.2043,67.102C 31.5218,67.3712 31.7635,67.6885 31.9292,68.0537C 32.2309,68.7189 32.312,69.4661 32.1725,70.2957 Z M 70.9166,41.7426C 71.1024,41.9959 71.2268,42.3238 71.2897,42.7266C 71.3699,43.2386 71.3651,43.765 71.2754,44.3057C 71.207,44.5726 71.1235,44.7781 71.0248,44.9216C 70.9261,45.0652 70.8114,45.1767 70.6806,45.2562C 70.5499,45.3358 70.386,45.3989 70.1891,45.4457L 69.4393,45.587L 68.8059,45.6861L 68.3046,45.7645L 68.2427,45.3687L 68.162,44.8527L 68.045,44.1049L 67.8892,43.1081L 68.3757,42.6566L 68.9599,42.1087L 69.5557,41.664C 69.7494,41.5457 69.9499,41.4702 70.1571,41.4378C 70.4776,41.3877 70.7308,41.4893 70.9166,41.7426 Z M 116.865,58.2139C 116.138,58.2858 115.405,58.1224 114.664,57.7236C 114.464,56.8529 114.691,56.0538 115.347,55.3265C 115.844,54.7755 116.409,54.4672 117.042,54.4014C 117.675,54.3358 118.405,54.5303 119.231,54.9849C 119.353,55.4198 119.379,55.8185 119.308,56.1807C 119.237,56.5429 119.08,56.8593 118.836,57.1296C 118.249,57.7805 117.592,58.142 116.865,58.2139 Z "/>
		</g>
	</g>
</svg>
