<?xml version="1.0" encoding="utf-8"?>
<!DOCTYPE svg PUBLIC "-//W3C//DTD SVG 1.1//EN" "http://www.w3.org/Graphics/SVG/1.1/DTD/svg11.dtd">
<svg xmlns="http://www.w3.org/2000/svg" xmlns:xlink="http://www.w3.org/1999/xlink" version="1.1" baseProfile="full" width="128" height="128" viewBox="0 0 128.00 128.00" enable-background="new 0 0 128.00 128.00" xml:space="preserve">
	<linearGradient id="SVGID_Fill1_" gradientUnits="objectBoundingBox" x1="0.569021" y1="0.586019" x2="1.08985" y2="0.586019" gradientTransform="rotate(-90.000000 0.569021 0.586019)">
		<stop offset="0" stop-color="#FF5000" stop-opacity="1"/>
		<stop offset="1" stop-color="#FF9464" stop-opacity="1"/>
	</linearGradient>
	<ellipse fill="url(#SVGID_Fill1_)" stroke-width="0.2" stroke-linejoin="round" cx="64" cy="64" rx="64" ry="64"/>
	<path fill="#FFFFFF" fill-opacity="1" stroke-width="0.2" stroke-linejoin="round" d="M 88.1776,90.8809C 88.6477,91.3276 88.6477,92.0798 88.1776,92.5265L 84.2283,96.4993C 83.7581,96.9458 83.0294,96.9458 82.5592,96.4993L 70.7577,84.6749L 67.1382,84.6749L 67.1382,91.5627C 67.1382,92.1974 66.6211,92.738 65.9629,92.738L 62.0371,92.738C 61.4024,92.738 60.8617,92.1974 60.8617,91.5627L 60.8617,84.6749L 57.2653,84.6749L 45.4407,96.4994C 44.9706,96.946 44.2419,96.946 43.7717,96.4994L 39.8224,92.5266C 39.3758,92.08 39.3758,91.3278 39.8224,90.8811L 46.0287,84.6749L 29.6671,84.6749C 29.0089,84.6749 28.4917,84.1343 28.4917,83.4995L 28.4917,40.41L 27.1753,40.41C 26.517,40.41 25.9999,39.8928 25.9999,39.2346L 25.9999,32.676C 25.9999,32.0178 26.517,31.5007 27.1753,31.5007L 100.825,31.5007C 101.483,31.5007 102,32.0178 102,32.676L 102,39.2346C 102,39.8928 101.483,40.41 100.825,40.41L 99.5082,40.41L 99.5082,83.4995C 99.5082,84.1343 98.9911,84.6749 98.3329,84.6749L 81.9716,84.6749L 88.1776,90.8809 Z M 83.4056,94.0082L 85.6859,91.7045L 78.657,84.6757L 74.0732,84.6757L 83.4056,94.0082 Z M 42.3144,91.7047L 44.6182,94.0084L 53.9315,84.6757L 49.3434,84.6757L 42.3144,91.7047 Z M 63.2127,90.3882L 64.7877,90.3882L 64.7877,84.6757L 63.2127,84.6757L 63.2127,90.3882 Z M 30.8427,40.6694L 30.8427,82.325L 97.1576,82.325L 97.1576,40.6694L 30.8427,40.6694 Z M 57.3827,44.6421C 65.0697,44.6421 71.3463,50.9186 71.3463,58.6292C 71.3463,59.2638 70.8291,59.8044 70.1709,59.8044L 57.3827,59.8044C 56.7245,59.8044 56.2073,59.2638 56.2073,58.6292L 56.2073,45.8174C 56.2073,45.1592 56.7245,44.6421 57.3827,44.6421 Z M 58.5581,47.1104L 58.5581,57.4537L 68.878,57.4537C 68.3373,51.9529 64.0354,47.6511 58.5581,47.1104 Z M 53.9271,48.0977C 54.5618,48.0977 55.1024,48.6147 55.1024,49.2729L 55.1024,60.9092L 66.7152,60.9092C 67.3735,60.9092 67.8906,61.4265 67.8906,62.0847C 67.8906,69.7716 61.6141,76.0482 53.9271,76.0482C 46.2166,76.0482 39.9401,69.7716 39.9401,62.0847C 39.9401,54.3741 46.2166,48.0977 53.9271,48.0977 Z M 52.7517,50.5659C 46.8748,51.1536 42.2908,56.0432 42.2908,62.0847C 42.2908,68.5022 47.486,73.6974 53.9271,73.6974C 59.9451,73.6974 64.8346,69.1134 65.4223,63.26L 53.9271,63.26C 53.2689,63.26 52.7517,62.7194 52.7517,62.0847L 52.7517,50.5659 Z M 75.46,47.9095L 90.0818,47.9095L 90.0818,50.2601L 75.46,50.2601L 75.46,47.9095 Z M 75.46,55.0087L 90.0817,55.0087L 90.0817,57.3594L 75.46,57.3594L 75.46,55.0087 Z M 75.46,62.1079L 90.0817,62.1079L 90.0817,64.4586L 75.46,64.4586L 75.46,62.1079 Z M 75.46,69.2072L 90.0817,69.2072L 90.0817,71.5579L 75.46,71.5579L 75.46,69.2072 Z M 28.3506,33.8514L 28.3506,38.0593L 99.6493,38.0593L 99.6493,33.8514L 28.3506,33.8514 Z "/>
</svg>
