<?xml version="1.0" encoding="utf-8"?>
<!DOCTYPE svg PUBLIC "-//W3C//DTD SVG 1.1//EN" "http://www.w3.org/Graphics/SVG/1.1/DTD/svg11.dtd">
<svg xmlns="http://www.w3.org/2000/svg" xmlns:xlink="http://www.w3.org/1999/xlink" version="1.1" baseProfile="full" width="128" height="128" viewBox="0 0 128.00 128.00" enable-background="new 0 0 128.00 128.00" xml:space="preserve">
	<linearGradient id="SVGID_Fill1_" gradientUnits="objectBoundingBox" x1="0.194901" y1="0.482428" x2="0.636307" y2="0.482428" gradientTransform="rotate(-90.000000 0.194901 0.482428)">
		<stop offset="0" stop-color="#0096FF" stop-opacity="1"/>
		<stop offset="1" stop-color="#87CDFF" stop-opacity="1"/>
	</linearGradient>
	<ellipse fill="url(#SVGID_Fill1_)" stroke-width="0.2" stroke-linejoin="round" cx="64" cy="64" rx="64" ry="64"/>
	<path fill="#FFFFFF" fill-opacity="1" stroke-width="0.2" stroke-linejoin="round" d="M 33.8242,29.9362L 90.2057,29.9362C 90.8635,29.9362 91.3803,30.453 91.3803,31.1107L 91.3803,39.6517C 93.6789,40.4456 95.3505,42.6335 95.3505,45.2062L 95.3505,74.8535C 95.3505,75.7932 95.0686,76.8972 94.6927,78.2363C 94.3169,79.5989 93.8235,81.1259 93.2832,82.559C 92.7429,83.9919 92.179,85.3546 91.6622,86.4117L 91.3803,86.9535L 91.3803,96.8893C 91.3803,97.5471 90.8635,98.064 90.2057,98.064L 33.8242,98.064C 33.1663,98.064 32.6495,97.5471 32.6495,96.8893L 32.6495,31.1107C 32.6495,30.453 33.1663,29.9362 33.8242,29.9362 Z M 89.0311,95.7153L 89.0311,88.6116C 88.6799,88.5105 88.5488,88.2968 88.4438,88.1743C 88.2794,88.0099 88.1854,87.8689 88.0679,87.681C 87.833,87.3286 87.6216,86.9056 87.3631,86.3889C 86.8698,85.3552 86.306,84.0161 85.7422,82.5596C 85.2018,81.1266 84.6616,79.5996 84.2856,78.2605C 83.8863,76.9215 83.6044,75.8174 83.6044,74.8541L 83.6044,45.2069C 83.6044,42.115 85.9974,39.5789 89.0311,39.3506L 89.0311,32.2861L 34.9988,32.2861L 34.9988,95.7153L 89.0311,95.7153 Z M 89.4775,41.683C 87.5041,41.683 85.9536,43.257 85.9536,45.2069L 85.9536,48.7306L 93.0013,48.7306L 93.0013,45.2069C 93.0013,43.257 91.4273,41.683 89.4775,41.683 Z M 85.9536,74.8541C 85.9536,75.1417 86.0945,75.9457 86.3506,76.9213L 92.6198,76.9213C 92.8615,75.9625 93.0013,75.1598 93.0013,74.8541L 93.0013,51.0798L 85.9536,51.0798L 85.9536,74.8541 Z M 87.9504,81.7374C 88.4673,83.1235 89.0311,84.439 89.4775,85.3787L 89.5244,85.4257C 89.5244,85.4022 89.5479,85.4022 89.5479,85.3552C 90.0178,84.439 90.5581,83.1235 91.075,81.7374C 91.3772,80.9269 91.6714,80.0842 91.9341,79.2705L 87.0572,79.2705C 87.3284,80.0778 87.6354,80.9155 87.9504,81.7374 Z M 43.2211,48.7305L 80.8088,48.7305L 80.8088,51.0797L 43.2211,51.0797L 43.2211,48.7305 Z M 43.2211,58.1272L 80.8088,58.1272L 80.8088,60.4764L 43.2211,60.4764L 43.2211,58.1272 Z M 43.2211,67.524L 80.8088,67.524L 80.8088,69.8733L 43.2211,69.8733L 43.2211,67.524 Z M 43.2211,76.9209L 80.8088,76.9209L 80.8088,79.2701L 43.2211,79.2701L 43.2211,76.9209 Z "/>
</svg>
