<?xml version="1.0" encoding="utf-8"?>
<!DOCTYPE svg PUBLIC "-//W3C//DTD SVG 1.1//EN" "http://www.w3.org/Graphics/SVG/1.1/DTD/svg11.dtd">
<svg xmlns="http://www.w3.org/2000/svg" xmlns:xlink="http://www.w3.org/1999/xlink" version="1.1" baseProfile="full" width="128" height="128" viewBox="0 0 128.00 128.00" enable-background="new 0 0 128.00 128.00" xml:space="preserve">
	<linearGradient id="SVGID_Fill1_" gradientUnits="objectBoundingBox" x1="0.18854" y1="0.50397" x2="0.696353" y2="0.50397" gradientTransform="rotate(-90.000000 0.188540 0.503970)">
		<stop offset="0" stop-color="#FFC800" stop-opacity="1"/>
		<stop offset="1" stop-color="#FFEFB7" stop-opacity="1"/>
	</linearGradient>
	<ellipse fill="url(#SVGID_Fill1_)" stroke-width="0.2" stroke-linejoin="round" cx="64" cy="64" rx="64" ry="64"/>
	<path fill="#3D3D3D" fill-opacity="1" stroke-width="0.2" stroke-linejoin="round" d="M 49.5034,40.0289L 62.9955,40.0289L 62.9955,42.5092L 49.5034,42.5092C 40.0292,42.5092 32.3655,50.1729 32.3655,59.6471L 32.3655,80.9517C 32.3655,90.4259 40.0292,98.0896 49.5034,98.0896L 70.808,98.0896C 80.2822,98.0896 87.9459,90.4259 87.9459,80.9517L 87.9459,60.7631L 90.4261,60.7631L 90.4261,80.9517C 90.4261,91.7651 81.6215,100.57 70.808,100.57L 49.5034,100.57C 38.6899,100.57 29.8853,91.7651 29.8853,80.9517L 29.8853,59.6471C 29.8853,48.8336 38.6899,40.0289 49.5034,40.0289 Z M 81.944,27.4303C 90.8478,27.4303 98.1147,34.6724 98.1147,43.5762C 98.1147,52.4799 90.8478,59.7468 81.944,59.7468C 73.0403,59.7468 65.7983,52.4799 65.7983,43.5762C 65.7983,34.6724 73.0403,27.4303 81.944,27.4303 Z M 81.944,29.9105C 74.3795,29.9105 68.2785,36.0116 68.2785,43.5762C 68.2785,51.1406 74.3795,57.2666 81.944,57.2666C 89.5085,57.2666 95.6346,51.1406 95.6346,43.5762C 95.6346,36.0116 89.5085,29.9105 81.944,29.9105 Z M 48.7099,71.6018C 53.6206,71.6018 57.6386,75.6198 57.6386,80.5305C 57.6386,85.4164 53.6206,89.4342 48.7099,89.4342C 43.824,89.4342 39.8062,85.4164 39.8062,80.5305C 39.8062,75.6198 43.824,71.6018 48.7099,71.6018 Z M 48.7099,74.082C 45.1634,74.082 42.2863,76.959 42.2863,80.5305C 42.2863,84.077 45.1634,86.9541 48.7099,86.9541C 52.2814,86.9541 55.1584,84.077 55.1584,80.5305C 55.1584,76.959 52.2814,74.082 48.7099,74.082 Z M 71.1801,65.0293C 71.6513,65.0045 72.0729,65.2526 72.321,65.6494L 79.2406,77.6533C 79.7118,78.4718 79.1166,79.5134 78.1741,79.5134L 64.3101,79.5134C 63.3676,79.5134 62.7724,78.4718 63.2436,77.6533L 70.1633,65.6494C 70.3865,65.3021 70.7585,65.0542 71.1801,65.0293 Z M 71.2296,68.7495L 66.4679,77.0333L 76.0164,77.0333L 71.2296,68.7495 Z M 50.9668,49.9746L 61.8051,49.9746C 62.4748,49.9746 63.0452,50.545 63.0452,51.2147L 63.0452,62.0531C 63.0452,62.7474 62.4748,63.2931 61.8051,63.2931L 50.9668,63.2931C 50.2724,63.2931 49.7267,62.7474 49.7267,62.0531L 49.7267,51.2147C 49.7267,50.545 50.2724,49.9746 50.9668,49.9746 Z M 52.2069,52.4548L 52.2069,60.813L 60.565,60.813L 60.565,52.4548L 52.2069,52.4548 Z M 77.182,35.3416C 77.5788,35.3663 77.9261,35.5648 78.1493,35.8624L 86.0362,46.6759L 86.1354,35.8376L 88.6156,35.8624L 88.4915,50.4458C 88.4667,51.6362 86.9539,52.1323 86.2594,51.165L 78.3725,40.4011L 78.3725,51.5618L 75.8924,51.5618L 75.8924,36.5817C 75.8924,35.8872 76.4876,35.3168 77.182,35.3416 Z "/>
</svg>
