<?xml version="1.0" encoding="utf-8"?>
<!DOCTYPE svg PUBLIC "-//W3C//DTD SVG 1.1//EN" "http://www.w3.org/Graphics/SVG/1.1/DTD/svg11.dtd">
<svg xmlns="http://www.w3.org/2000/svg" xmlns:xlink="http://www.w3.org/1999/xlink" version="1.1" baseProfile="full" width="128" height="128" viewBox="0 0 128.00 128.00" enable-background="new 0 0 128.00 128.00" xml:space="preserve">
	<linearGradient id="SVGID_Fill1_" gradientUnits="objectBoundingBox" x1="0.205757" y1="0.52284" x2="0.705757" y2="0.52284" gradientTransform="rotate(-90.000000 0.205757 0.522840)">
		<stop offset="0" stop-color="#348600" stop-opacity="1"/>
		<stop offset="1" stop-color="#78BD4D" stop-opacity="1"/>
	</linearGradient>
	<ellipse fill="url(#SVGID_Fill1_)" stroke-width="0.2" stroke-linejoin="round" cx="64" cy="64" rx="64" ry="64"/>
	<path fill="#FFFFFF" fill-opacity="1" stroke-width="0.2" stroke-linejoin="round" d="M 64.0909,25.7874C 73.7381,25.7874 81.7211,33.5624 81.7211,43.2096C 81.7211,52.6748 73.7381,60.4498 64.0909,60.4498C 54.2877,60.4498 46.3046,52.6748 46.3046,43.2096C 46.3046,33.5624 54.2877,25.7874 64.0909,25.7874 Z M 64.091,28.3893C 55.666,28.3893 48.905,34.9941 48.905,43.2112C 48.905,51.2202 55.666,57.8511 64.091,57.8511C 72.334,57.8511 79.1208,51.2202 79.1208,43.2112C 79.1208,34.9941 72.334,28.3893 64.091,28.3893 Z M 64.091,61.5176C 69.6297,61.5176 74.8564,62.7916 79.4849,65.002L 78.3408,67.3422C 74.0762,65.288 69.2397,64.1179 64.091,64.1179C 46.8248,64.1179 33.1471,76.8594 32.627,92.9814C 43.1843,96.3619 53.8196,99.6123 64.091,99.6123C 74.3882,99.6123 84.8416,96.3619 95.3989,92.9554C 95.2949,89.8611 94.7228,86.8967 93.7347,84.1143L 96.179,83.2302C 97.3752,86.5846 98.0252,90.1731 98.0252,93.9176C 98.0252,94.4636 97.6611,94.9838 97.1411,95.1396C 86.2458,98.6501 75.2464,102.213 64.091,102.213C 52.9355,102.213 41.7542,98.6501 30.8849,95.1396C 30.3388,94.9838 29.9748,94.4636 29.9748,93.9176C 29.9748,75.8973 45.1866,61.5176 64.091,61.5176 Z M 92.8765,83.8801L 92.8765,83.7241C 92.8765,85.2844 91.6024,86.5585 90.0422,86.5585L 87.5979,86.5585C 86.0378,86.5585 84.7636,85.2844 84.7636,83.7241L 84.7636,83.8801L 83.2341,71.9297C 81.7704,70.4801 80.8631,68.4678 80.8631,66.2499C 80.8631,61.8813 84.4255,58.2928 88.8201,58.2928C 93.2146,58.2928 96.777,61.8813 96.777,66.2499C 96.777,68.4736 95.8648,70.491 94.3942,71.9413L 92.8765,83.8801 Z M 87.3379,83.5421C 87.364,83.6201 87.364,83.6722 87.364,83.7241C 87.364,83.8541 87.4419,83.9581 87.5979,83.9581L 90.0422,83.9581C 90.1982,83.9581 90.2762,83.8541 90.2762,83.7241C 90.2762,83.6722 90.2762,83.6201 90.3022,83.5421L 91.5469,73.7501C 90.6964,74.0623 89.778,74.2329 88.8201,74.2329C 87.8671,74.2329 86.9534,74.0641 86.1065,73.755L 87.3379,83.5421 Z M 88.8201,60.8932C 85.8297,60.8932 83.4634,63.2855 83.4634,66.2499C 83.4634,69.2402 85.8297,71.6326 88.8201,71.6326C 91.7844,71.6326 94.1768,69.2402 94.1768,66.2499C 94.1768,63.2855 91.7844,60.8932 88.8201,60.8932 Z M 86.7398,62.4534C 87.1558,62.4534 87.4939,62.7914 87.4939,63.2334C 87.4939,63.6495 87.1558,63.9875 86.7398,63.9875C 86.2978,63.9875 85.9597,63.6495 85.9597,63.2334C 85.9597,62.7914 86.2978,62.4534 86.7398,62.4534 Z M 85.4136,64.6895C 85.8557,64.6895 86.1938,65.0276 86.1938,65.4696C 86.1938,65.8856 85.8557,66.2238 85.4136,66.2238C 84.9976,66.2238 84.6335,65.8856 84.6335,65.4696C 84.6335,65.0276 84.9976,64.6895 85.4136,64.6895 Z M 86.0377,67.2898C 86.4538,67.2898 86.8178,67.6537 86.8178,68.0698C 86.8178,68.5118 86.4538,68.8499 86.0377,68.8499C 85.6216,68.8499 85.2576,68.5118 85.2576,68.0698C 85.2576,67.6537 85.6216,67.2898 86.0377,67.2898 Z M 88.8201,66.9255C 89.2621,66.9255 89.6001,67.2897 89.6001,67.7057C 89.6001,68.1216 89.2621,68.4857 88.8201,68.4857C 88.404,68.4857 88.0659,68.1216 88.0659,67.7057C 88.0659,67.2897 88.404,66.9255 88.8201,66.9255 Z M 87.8839,69.2137C 88.3259,69.2137 88.664,69.5518 88.664,69.9939C 88.664,70.4099 88.3259,70.7479 87.8839,70.7479C 87.4678,70.7479 87.1299,70.4099 87.1299,69.9939C 87.1299,69.5518 87.4678,69.2137 87.8839,69.2137 Z M 88.9761,61.7767C 89.4182,61.7767 89.7562,62.1406 89.7562,62.5568C 89.7562,62.9988 89.4182,63.3369 88.9761,63.3369C 88.56,63.3369 88.196,62.9988 88.196,62.5568C 88.196,62.1406 88.56,61.7767 88.9761,61.7767 Z M 87.9099,64.793C 88.352,64.793 88.69,65.131 88.69,65.573C 88.69,65.9891 88.352,66.3271 87.9099,66.3271C 87.4939,66.3271 87.1558,65.9891 87.1558,65.573C 87.1558,65.131 87.4939,64.793 87.9099,64.793 Z M 91.2123,62.5305C 91.6284,62.5305 91.9664,62.8685 91.9664,63.2847C 91.9664,63.7267 91.6284,64.0647 91.2123,64.0647C 90.7703,64.0647 90.4322,63.7267 90.4322,63.2847C 90.4322,62.8685 90.7703,62.5305 91.2123,62.5305 Z M 92.8245,64.7407C 93.2405,64.7407 93.5786,65.0787 93.5786,65.5209C 93.5786,65.9369 93.2405,66.2749 92.8245,66.2749C 92.3825,66.2749 92.0444,65.9369 92.0444,65.5209C 92.0444,65.0787 92.3825,64.7407 92.8245,64.7407 Z M 90.4583,69.0831C 90.9003,69.0831 91.2383,69.4211 91.2383,69.8373C 91.2383,70.2793 90.9003,70.6173 90.4583,70.6173C 90.0422,70.6173 89.6782,70.2793 89.6782,69.8373C 89.6782,69.4211 90.0422,69.0831 90.4583,69.0831 Z M 91.9664,67.0808C 92.4084,67.0808 92.7465,67.4188 92.7465,67.861C 92.7465,68.277 92.4084,68.641 91.9664,68.641C 91.5504,68.641 91.2123,68.277 91.2123,67.861C 91.2123,67.4188 91.5504,67.0808 91.9664,67.0808 Z M 90.3542,65.1045C 90.7962,65.1045 91.1343,65.4425 91.1343,65.8586C 91.1343,66.3007 90.7962,66.6387 90.3542,66.6387C 89.9382,66.6387 89.6001,66.3007 89.6001,65.8586C 89.6001,65.4425 89.9382,65.1045 90.3542,65.1045 Z "/>
</svg>
