<?xml version="1.0" encoding="utf-8"?>
<!DOCTYPE svg PUBLIC "-//W3C//DTD SVG 1.1//EN" "http://www.w3.org/Graphics/SVG/1.1/DTD/svg11.dtd">
<svg xmlns="http://www.w3.org/2000/svg" xmlns:xlink="http://www.w3.org/1999/xlink" version="1.1" baseProfile="full" width="128" height="128" viewBox="0 0 128.00 128.00" enable-background="new 0 0 128.00 128.00" xml:space="preserve">
	<linearGradient id="SVGID_Fill1_" gradientUnits="objectBoundingBox" x1="0.497838" y1="0.500449" x2="1.00305" y2="0.500449" gradientTransform="rotate(-90.000000 0.497838 0.500449)">
		<stop offset="0" stop-color="#706CF5" stop-opacity="1"/>
		<stop offset="1" stop-color="#ACA9FF" stop-opacity="1"/>
	</linearGradient>
	<ellipse fill="url(#SVGID_Fill1_)" stroke-width="0.2" stroke-linejoin="round" cx="64" cy="64" rx="64" ry="64"/>
	<g>
		<path fill="#FFFFFF" fill-opacity="1" stroke-width="0.2" stroke-linejoin="round" d="M 79.927,88.1252C 75.3595,91.1473 69.8837,92.9071 63.9968,92.9071C 52.6642,92.9071 42.8547,86.3857 38.1162,76.8911C 35.723,75.6298 33.5299,74.3131 31.5704,72.9659C 35.4945,87.1892 48.5258,97.6346 63.9968,97.6346C 73.1835,97.6346 81.51,93.9515 87.5802,87.9814C 85.21,88.1794 82.6445,88.2289 79.927,88.1252 Z "/>
		<path fill="#FFFFFF" fill-opacity="1" stroke-width="0.2" stroke-linejoin="round" d="M 35.7133,70C 33.7684,68.8087 32.0033,67.584 30.4426,66.344C 24.6535,61.7445 21.6786,56.9362 22.7897,52.8539C 23.8978,48.7833 28.8743,46.1494 36.1621,45.1124C 42.2136,36.2117 52.4224,30.3654 63.9968,30.3654C 81.8338,30.3654 96.4279,44.25 97.5607,61.8008C 103.348,66.3995 106.321,71.2068 105.21,75.2882C 104.096,79.3801 99.0735,82.0203 91.7232,83.0459C 89.7463,83.3217 87.6011,83.4808 85.3182,83.5199C 77.8764,83.6475 68.9726,82.5002 59.6727,79.9689C 50.3473,77.4307 42.0707,73.8943 35.7133,70 Z M 89.0496,78.4312C 91.4731,74.2328 92.8717,69.3684 92.9033,64.1799L 92.9038,64.0001C 92.9038,48.0352 79.9617,35.093 63.9967,35.093C 53.3824,35.093 44.1042,40.8138 39.0773,49.3403C 36.547,53.6324 35.0938,58.6354 35.0897,63.9774C 41.1115,68.0074 50.2121,71.9813 60.7391,74.8468C 71.6051,77.8044 81.7596,78.9736 89.0496,78.4312 Z M 94.8261,77.469C 97.7253,76.6179 99.5944,75.2722 100.092,73.4442C 100.598,71.5839 99.6273,69.4343 97.4822,67.1891L 97.4373,67.6349C 97.0652,71.0974 96.1677,74.4025 94.8261,77.469 Z M 33.4296,49.9473L 33.6731,49.4301C 30.2532,50.2716 28.0699,51.6936 27.5259,53.6923C 26.9877,55.6698 28.119,57.9741 30.5554,60.373C 30.9507,56.6869 31.9414,53.179 33.4296,49.9473 Z "/>
	</g>
</svg>
