<?xml version="1.0" encoding="utf-8"?>
<!DOCTYPE svg PUBLIC "-//W3C//DTD SVG 1.1//EN" "http://www.w3.org/Graphics/SVG/1.1/DTD/svg11.dtd">
<svg xmlns="http://www.w3.org/2000/svg" xmlns:xlink="http://www.w3.org/1999/xlink" version="1.1" baseProfile="full" width="26.3882" height="21.5869" viewBox="0 0 26.39 21.59" enable-background="new 0 0 26.39 21.59" xml:space="preserve">
	<path fill="#0085D4" fill-opacity="1" stroke-width="0.2" stroke-linejoin="round" d="M 3.34668,8.19906C 3.34668,8.19906 -0.662231,5.60287 1.7049,0.944908C 1.7049,0.944908 5.40839,6.25191 12.9298,6.6719C 12.9298,6.6719 11.8226,3.19753 15.4115,0.75399C 15.4115,0.75399 18.7331,-1.57493 22.2075,1.70852C 22.2075,1.70852 24.6129,1.07858 25.6437,0.334068C 25.6437,0.334068 25.5482,1.63216 23.2766,3.35024C 23.2766,3.35024 24.7656,3.18795 26.3882,2.48165C 26.3882,2.48165 25.7678,3.68429 23.687,5.29745C 23.687,5.29745 23.6831,5.35506 23.6731,5.46334C 23.7418,6.95925 23.6895,13.3651 18.2281,17.9887C 16.7115,19.4356 14.7783,20.5705 12.3159,21.064C 6.05176,23.0279 0,19.1075 0,19.1075C 0,19.1075 4.27612,19.833 7.86505,16.8549C 7.86505,16.8549 4.5434,16.9313 2.82526,13.0369C 2.82526,13.0369 4.39069,13.3042 5.2688,12.9224C 5.2688,12.9224 1.14539,12.1206 0.916321,7.53902C 0.916321,7.53902 1.99725,8.2864 3.34668,8.19906 Z "/>
</svg>
