<?xml version="1.0" encoding="utf-8"?>
<!DOCTYPE svg PUBLIC "-//W3C//DTD SVG 1.1//EN" "http://www.w3.org/Graphics/SVG/1.1/DTD/svg11.dtd">
<svg xmlns="http://www.w3.org/2000/svg" xmlns:xlink="http://www.w3.org/1999/xlink" version="1.1" baseProfile="full" width="184.919" height="40.3285" viewBox="0 0 184.92 40.33" enable-background="new 0 0 184.92 40.33" xml:space="preserve">
	<linearGradient id="SVGID_Fill1_" gradientUnits="objectBoundingBox" x1="0.041022" y1="0.00103331" x2="1.42354" y2="0.00103331" gradientTransform="rotate(2.954468 0.041022 0.001033)">
		<stop offset="0" stop-color="#0096FF" stop-opacity="1"/>
		<stop offset="1" stop-color="#FF0064" stop-opacity="1"/>
	</linearGradient>
	<path fill="url(#SVGID_Fill1_)" fill-rule="evenodd" stroke-linejoin="round" d="M 16.4035,4.32092L 17.2036,0L 24.4052,0L 17.2837,40.3285L 0,40.3285L 6.32134,4.32092L 16.4035,4.32092 Z M 11.3624,33.127L 15.1232,11.5224L 12.2426,11.5224L 8.48179,33.127L 11.3624,33.127 Z M 25.3654,10.0821L 32.7269,10.0821L 27.3658,40.3285L 20.0842,40.3285L 25.3654,10.0821 Z M 27.1257,0L 34.5673,0L 33.287,7.20152L 25.9255,7.20152L 27.1257,0 Z M 47.53,40.3285L 30.2464,40.3285L 36.5677,4.32092L 53.8514,4.32092L 49.2904,30.2464L 39.3683,30.2464L 38.8082,33.127L 48.8103,33.127L 47.53,40.3285 Z M 45.2896,11.5224L 42.649,11.5224L 40.5686,23.0449L 43.2891,23.0449L 45.2896,11.5224 Z M 70.975,21.6046L 67.6943,40.3285L 60.4128,40.3285L 62.4132,28.8061L 59.7726,28.8061L 57.6922,40.3285L 50.4107,40.3285L 57.5322,0L 64.8137,0L 62.8133,11.5224L 65.4538,11.5224L 66.7341,4.32092L 74.0156,4.32092L 71.5351,18.724L 61.533,18.724L 61.0529,21.6046L 70.975,21.6046 Z M 76.8963,4.32092L 84.2578,4.32092L 79.1367,33.127L 81.7773,33.127L 86.8984,4.32092L 94.1799,4.32092L 87.8586,40.3285L 70.5749,40.3285L 76.8963,4.32092 Z M 114.344,4.32092L 112.344,15.8434L 105.062,15.8434L 105.782,11.5224L 103.142,11.5224L 101.862,18.724L 111.864,18.724L 108.023,40.3285L 90.7392,40.3285L 92.7396,28.8061L 100.101,28.8061L 99.301,33.127L 102.022,33.127L 103.222,25.9255L 93.2997,25.9255L 97.0605,4.32092L 114.344,4.32092 Z M 112.024,33.127L 119.385,33.127L 118.105,40.3285L 110.823,40.3285L 112.024,33.127 Z M 127.307,4.32092L 144.591,4.32092L 138.269,40.3285L 130.988,40.3285L 136.029,11.5224L 133.388,11.5224L 128.267,40.3285L 120.986,40.3285L 127.307,4.32092 Z M 158.433,40.3285L 141.15,40.3285L 147.471,4.32092L 164.755,4.32092L 160.194,30.2464L 150.272,30.2464L 149.712,33.127L 159.714,33.127L 158.433,40.3285 Z M 156.193,11.5224L 153.552,11.5224L 151.472,23.0449L 154.193,23.0449L 156.193,11.5224 Z M 169.876,33.127L 172.596,33.127L 175.877,14.323L 183.159,14.323L 178.598,40.3285L 161.314,40.3285L 168.436,0L 175.717,0L 174.997,4.32092L 184.919,4.32092L 183.639,11.5224L 173.717,11.5224L 169.876,33.127 Z "/>
</svg>
