<?xml version="1.0" encoding="utf-8"?>
<!DOCTYPE svg PUBLIC "-//W3C//DTD SVG 1.1//EN" "http://www.w3.org/Graphics/SVG/1.1/DTD/svg11.dtd">
<svg xmlns="http://www.w3.org/2000/svg" xmlns:xlink="http://www.w3.org/1999/xlink" version="1.1" baseProfile="full" width="22.2216" height="21.6346" viewBox="0 0 22.22 21.63" enable-background="new 0 0 22.22 21.63" xml:space="preserve">
	<path fill="#0096FF" fill-opacity="1" stroke-width="0.2" stroke-linejoin="round" d="M 11.0727,0.593506C 16.8803,0.593506 21.5881,5.18738 21.5881,10.8544L 21.4287,12.6437C 21.9336,13.5177 22.2216,14.5269 22.2216,15.6016C 22.2216,18.9335 19.4536,21.6346 16.0391,21.6346C 14.9833,21.6346 13.9893,21.3763 13.12,20.921L 11.0727,21.1154C 5.26532,21.1154 0.557495,16.5214 0.557495,10.8544L 0.746216,8.90857C 0.270264,8.05377 0,7.07416 0,6.03296C 0,2.70105 2.76801,-6.10352e-005 6.18256,-6.10352e-005C 7.2724,-6.10352e-005 8.29639,0.275146 9.18555,0.75824L 11.0727,0.593506 Z M 5.84033,7.87524C 5.84033,7.87524 5.53632,9.82849 7.20862,10.7928C 8.88098,11.7571 11.9976,12.0044 12.7069,12.4495C 13.4164,12.8945 13.9738,13.5374 12.9097,14.7241C 11.8455,15.9109 8.72894,15.0456 8.14618,13.6116C 7.56335,12.1775 5.48572,13.1417 5.76428,14.1307C 6.04315,15.1198 6.5498,17.0978 10.5786,17.2708C 14.6073,17.444 16.2797,15.5153 16.457,13.834C 16.6345,12.1528 16.3557,10.3726 11.9976,9.60602C 7.63934,8.8396 8.2981,7.25714 9.66638,6.6637C 11.0346,6.07031 12.7577,6.7627 13.3658,7.67749C 13.9738,8.59235 15.7729,8.64172 15.9502,7.4549C 16.1276,6.26807 14.7594,4.66101 11.7441,4.36432C 8.72894,4.06763 5.94165,5.15552 5.84033,7.87524 Z "/>
</svg>
