<?xml version="1.0" encoding="utf-8"?>
<!DOCTYPE svg PUBLIC "-//W3C//DTD SVG 1.1//EN" "http://www.w3.org/Graphics/SVG/1.1/DTD/svg11.dtd">
<svg xmlns="http://www.w3.org/2000/svg" xmlns:xlink="http://www.w3.org/1999/xlink" version="1.1" baseProfile="full" width="136.667" height="46.3333" viewBox="0 0 136.67 46.33" enable-background="new 0 0 136.67 46.33" xml:space="preserve">
	<path fill="#FFFFFF" fill-opacity="1" stroke-linejoin="round" d="M 0,5.72205e-006L 136.667,5.72205e-006L 136.667,46.3333L 0,46.3333L 0,5.72205e-006 Z M 19.9733,31.5217L 19.0133,33.8242C 20.1933,34.4942 21.5433,35.0217 23.0633,35.4067C 24.5833,35.7917 26.1283,35.9842 27.6983,35.9842C 28.9133,35.9842 30.0733,35.8567 31.1783,35.6017C 32.2833,35.3467 33.2521,34.9542 34.0846,34.4242C 34.9171,33.8942 35.5808,33.2054 36.0758,32.3579C 36.5708,31.5104 36.8183,30.4942 36.8183,29.3092C 36.8183,28.1592 36.5858,27.1917 36.1208,26.4067C 35.6558,25.6217 35.0396,24.9492 34.2721,24.3892C 33.5046,23.8292 32.6333,23.3492 31.6583,22.9492L 28.6583,21.8242L 25.9733,20.8192C 25.1733,20.4992 24.4846,20.1467 23.9071,19.7617C 23.3296,19.3767 22.8896,18.9517 22.5871,18.4867C 22.2846,18.0217 22.1333,17.4542 22.1333,16.7842C 22.1333,16.1142 22.2933,15.5304 22.6133,15.0329C 22.9333,14.5354 23.3646,14.1267 23.9071,13.8067C 24.4496,13.4867 25.0733,13.2467 25.7783,13.0867C 26.4833,12.9267 27.2183,12.8467 27.9833,12.8467C 29.1383,12.8467 30.3321,13.0067 31.5646,13.3267C 32.7971,13.6467 34.0208,14.1117 35.2358,14.7217L 36.1958,12.4642C 34.8808,11.7592 33.5283,11.2304 32.1383,10.8779C 30.7483,10.5254 29.3808,10.3492 28.0358,10.3492C 26.8508,10.3492 25.7308,10.4854 24.6758,10.7579C 23.6208,11.0304 22.6933,11.4392 21.8933,11.9842C 21.0933,12.5292 20.4608,13.2179 19.9958,14.0504C 19.5308,14.8829 19.2983,15.8417 19.2983,16.9267C 19.2983,17.9817 19.5058,18.8779 19.9208,19.6154C 20.3358,20.3529 20.9033,20.9929 21.6233,21.5354C 22.3433,22.0779 23.1758,22.5492 24.1208,22.9492L 27.0758,24.1267L 29.9296,25.2067C 30.7771,25.5417 31.4971,25.9017 32.0896,26.2867C 32.6821,26.6717 33.1458,27.1204 33.4808,27.6329C 33.8158,28.1454 33.9833,28.7542 33.9833,29.4592C 33.9833,30.2242 33.8083,30.8629 33.4583,31.3754C 33.1083,31.8879 32.6446,32.3042 32.0671,32.6242C 31.4896,32.9442 30.8408,33.1679 30.1208,33.2954C 29.4008,33.4229 28.6733,33.4867 27.9383,33.4867C 26.5933,33.4867 25.2333,33.3192 23.8583,32.9842C 22.4833,32.6492 21.1883,32.1617 19.9733,31.5217 Z M 56.2133,32.7217C 55.1533,33.2317 53.9358,33.4867 52.5608,33.4867C 51.1858,33.4867 49.9708,33.2304 48.9158,32.7179C 47.8608,32.2054 46.9808,31.4854 46.2758,30.5579C 45.5708,29.6304 45.0346,28.5429 44.6671,27.2954C 44.2996,26.0479 44.1158,24.6717 44.1158,23.1667C 44.1158,21.6967 44.2996,20.3292 44.6671,19.0642C 45.0346,17.7992 45.5708,16.7029 46.2758,15.7754C 46.9808,14.8479 47.8608,14.1279 48.9158,13.6154C 49.9708,13.1029 51.1858,12.8467 52.5608,12.8467C 53.9358,12.8467 55.1521,13.1029 56.2096,13.6154C 57.2671,14.1279 58.1471,14.8479 58.8496,15.7754C 59.5521,16.7029 60.0883,17.7992 60.4583,19.0642C 60.8283,20.3292 61.0133,21.6967 61.0133,23.1667C 61.0133,24.6717 60.8283,26.0479 60.4583,27.2954C 60.0883,28.5429 59.5521,29.6304 58.8496,30.5579C 58.1471,31.4854 57.2683,32.2067 56.2133,32.7217 Z M 60.8633,32.4292C 61.8233,31.2792 62.5596,29.9204 63.0721,28.3529C 63.5845,26.7854 63.8408,25.0567 63.8408,23.1667C 63.8408,21.2817 63.5845,19.5542 63.0721,17.9842C 62.5596,16.4142 61.8233,15.0617 60.8633,13.9267C 59.9033,12.7917 58.7283,11.9117 57.3383,11.2867C 55.9483,10.6617 54.3558,10.3492 52.5608,10.3492C 50.7708,10.3492 49.1796,10.6617 47.7871,11.2867C 46.3946,11.9117 45.2183,12.7917 44.2583,13.9267C 43.2983,15.0617 42.5621,16.4142 42.0496,17.9842C 41.5371,19.5542 41.2808,21.2817 41.2808,23.1667C 41.2808,25.0567 41.5371,26.7854 42.0496,28.3529C 42.5621,29.9204 43.2983,31.2717 44.2583,32.4067C 45.2183,33.5417 46.3946,34.4217 47.7871,35.0467C 49.1796,35.6717 50.7708,35.9842 52.5608,35.9842C 54.3558,35.9842 55.9483,35.6717 57.3383,35.0467C 58.7283,34.4217 59.9033,33.5492 60.8633,32.4292 Z M 83.5733,32.7217C 82.5133,33.2317 81.2958,33.4867 79.9208,33.4867C 78.5458,33.4867 77.3308,33.2304 76.2758,32.7179C 75.2208,32.2054 74.3408,31.4854 73.6358,30.5579C 72.9308,29.6304 72.3946,28.5429 72.0271,27.2954C 71.6596,26.0479 71.4758,24.6717 71.4758,23.1667C 71.4758,21.6967 71.6596,20.3292 72.0271,19.0642C 72.3946,17.7992 72.9308,16.7029 73.6358,15.7754C 74.3408,14.8479 75.2208,14.1279 76.2758,13.6154C 77.3308,13.1029 78.5458,12.8467 79.9208,12.8467C 81.2958,12.8467 82.5121,13.1029 83.5696,13.6154C 84.6271,14.1279 85.5071,14.8479 86.2096,15.7754C 86.9121,16.7029 87.4483,17.7992 87.8183,19.0642C 88.1883,20.3292 88.3733,21.6967 88.3733,23.1667C 88.3733,24.6717 88.1883,26.0479 87.8183,27.2954C 87.4483,28.5429 86.9121,29.6304 86.2096,30.5579C 85.5071,31.4854 84.6283,32.2067 83.5733,32.7217 Z M 88.2233,32.4292C 89.1833,31.2792 89.9195,29.9204 90.432,28.3529C 90.9445,26.7854 91.2008,25.0567 91.2008,23.1667C 91.2008,21.2817 90.9445,19.5542 90.432,17.9842C 89.9195,16.4142 89.1833,15.0617 88.2233,13.9267C 87.2633,12.7917 86.0883,11.9117 84.6983,11.2867C 83.3083,10.6617 81.7158,10.3492 79.9208,10.3492C 78.1308,10.3492 76.5396,10.6617 75.1471,11.2867C 73.7546,11.9117 72.5783,12.7917 71.6183,13.9267C 70.6583,15.0617 69.9221,16.4142 69.4096,17.9842C 68.8971,19.5542 68.6408,21.2817 68.6408,23.1667C 68.6408,25.0567 68.8971,26.7854 69.4096,28.3529C 69.9221,29.9204 70.6583,31.2717 71.6183,32.4067C 72.5783,33.5417 73.7546,34.4217 75.1471,35.0467C 76.5396,35.6717 78.1308,35.9842 79.9208,35.9842C 81.7158,35.9842 83.3083,35.6717 84.6983,35.0467C 86.0883,34.4217 87.2633,33.5492 88.2233,32.4292 Z M 114.863,35.5042L 117.653,35.5042C 117.393,34.5742 117.24,33.5979 117.192,32.5754L 117.121,29.6467L 117.121,19.9042C 117.121,18.5592 116.977,17.3029 116.69,16.1354C 116.402,14.9679 115.946,13.9604 115.321,13.1129C 114.696,12.2654 113.912,11.5929 112.97,11.0954C 112.027,10.5979 110.883,10.3492 109.538,10.3492C 107.908,10.3492 106.333,10.7017 104.813,11.4067C 103.293,12.1117 101.861,12.9767 100.516,14.0017L 100.223,10.6867L 97.7783,10.9267L 97.7783,35.5042L 100.561,35.5042L 100.561,16.4017C 101.776,15.4067 103.128,14.5654 104.618,13.8779C 106.108,13.1904 107.556,12.8467 108.961,12.8467C 109.986,12.8467 110.842,13.0392 111.53,13.4242C 112.217,13.8092 112.77,14.3379 113.187,15.0104C 113.605,15.6829 113.901,16.4592 114.076,17.3392C 114.251,18.2192 114.338,19.1542 114.338,20.1442L 114.338,29.6467L 114.41,32.5754C 114.457,33.5979 114.608,34.5742 114.863,35.5042 Z "/>
</svg>
