<?xml version="1.0" encoding="utf-8"?>
<!DOCTYPE svg PUBLIC "-//W3C//DTD SVG 1.1//EN" "http://www.w3.org/Graphics/SVG/1.1/DTD/svg11.dtd">
<svg xmlns="http://www.w3.org/2000/svg" xmlns:xlink="http://www.w3.org/1999/xlink" version="1.1" baseProfile="full" width="106.921" height="165.246" viewBox="0 0 106.92 165.25" enable-background="new 0 0 106.92 165.25" xml:space="preserve">
	<path fill="#987FFF" fill-opacity="0.803922" fill-rule="evenodd" stroke-width="7" stroke-linecap="round" stroke-linejoin="round" stroke="#FFFFFF" stroke-opacity="1" d="M 53.4604,3.5L 53.4604,3.5C 73.3439,3.5 89.4625,19.6188 89.4625,39.5021L 89.4625,86.3131C 89.4625,106.197 73.3439,122.315 53.4604,122.315L 53.4604,122.315C 33.577,122.315 17.4584,106.197 17.4584,86.3131L 17.4584,39.5021C 17.4584,19.6188 33.577,3.5 53.4604,3.5 Z M 103.421,62.1952L 103.421,88.8638C 103.421,116.456 81.0527,138.824 53.4604,138.824C 25.868,138.824 3.50012,116.456 3.50012,88.8638L 3.5,62.2373M 53.4604,145.18L 53.4604,154.528M 25.8771,161.746L 81.0436,161.746"/>
</svg>
