<?xml version="1.0" encoding="utf-8"?>
<!DOCTYPE svg PUBLIC "-//W3C//DTD SVG 1.1//EN" "http://www.w3.org/Graphics/SVG/1.1/DTD/svg11.dtd">
<svg xmlns="http://www.w3.org/2000/svg" xmlns:xlink="http://www.w3.org/1999/xlink" version="1.1" baseProfile="full" width="86.8564" height="44.4954" viewBox="0 0 86.86 44.50" enable-background="new 0 0 86.86 44.50" xml:space="preserve">
	<linearGradient id="SVGID_Fill1_" gradientUnits="objectBoundingBox" x1="0.0255704" y1="0.0849657" x2="1.28152" y2="0.0849657" gradientTransform="rotate(13.674749 0.025570 0.084966)">
		<stop offset="0" stop-color="#0096FF" stop-opacity="1"/>
		<stop offset="1" stop-color="#FF0064" stop-opacity="1"/>
	</linearGradient>
	<path fill="url(#SVGID_Fill1_)" stroke-width="0.2" stroke-linejoin="round" d="M 7.18093,3.09052C 10.7814,1.73029 15.662,1.41022 21.1027,0.850159C 31.5841,-0.27002 52.9469,-0.27002 65.9886,0.770203C 79.0303,1.8103 82.2308,4.69067 84.471,7.33105C 86.7914,9.97137 87.0314,26.2135 86.7914,31.4142C 86.4713,36.5348 82.3108,41.3354 71.7494,43.2557C 62.9846,44.8373 61.3847,44.9534 58.187,43.3357L 29.3305,43.3357L 28.3837,43.7357C 23.9031,45.416 17.3423,43.8158 12.0616,42.7756C 6.78088,41.8155 2.78036,37.975 1.02013,34.5346C -0.660095,31.1742 0.140015,20.2127 0.540062,16.2122C 0.460045,16.4522 0.540062,14.852 1.26015,9.97137C 1.74022,6.21088 3.9005,4.21063 7.18093,3.09052 Z M 37.9049,34.7748C 36.8974,36.9579 35.5594,38.8324 33.868,40.3756L 53.4443,40.3756C 49.8978,37.2174 48.1574,32.3963 47.026,29.7342C 45.7459,26.5338 47.026,26.3738 47.9862,26.5338C 48.9463,26.6138 49.5064,29.0941 52.3067,33.2546C 55.1071,37.4152 61.2679,36.135 69.3489,33.9748C 77.43,31.8145 78.0701,30.2143 78.3901,29.5741C 78.6302,28.9341 78.7102,22.1332 78.6302,17.9727C 78.5501,13.8121 76.6299,13.6521 74.3096,12.772C 71.9893,11.8118 68.9489,10.5317 44.0656,10.5317C 19.1824,10.5317 13.1016,12.852 10.6213,13.5721C 8.14099,14.3721 8.30101,15.1723 8.30101,15.1723C 8.30101,15.1723 7.74095,21.0931 7.82095,25.7336C 7.90096,30.3743 9.50118,30.7743 10.6213,31.4144C 11.6615,32.0545 13.0216,32.5346 19.9025,34.6948C 26.7034,36.7751 30.784,35.815 32.5442,35.0949C 34.3044,34.4548 35.6646,31.7345 36.8648,29.5741C 38.0649,27.3339 38.945,26.7738 39.6651,26.7738C 40.3852,26.7738 40.5452,27.0938 40.6253,27.734C 40.7053,28.294 39.8251,30.6143 37.9049,34.7748 Z M 26.5434,12.2119C 32.0642,12.2119 36.5447,16.6924 36.5447,22.2131C 36.5447,27.7339 32.0642,32.2144 26.5434,32.2144C 21.1027,32.2144 16.5421,27.7339 16.5421,22.2131C 16.5421,16.6924 21.1027,12.2119 26.5434,12.2119 Z M 26.5434,15.2523C 22.7029,15.2523 19.5825,18.3726 19.5825,22.2131C 19.5825,26.0536 22.7029,29.1741 26.5434,29.1741C 30.4639,29.1741 33.5043,26.0536 33.5043,22.2131C 33.5043,18.3726 30.4639,15.2523 26.5434,15.2523 Z M 60.0678,12.2119C 65.5885,12.2119 70.0691,16.6924 70.0691,22.2131C 70.0691,27.7339 65.5885,32.2144 60.0678,32.2144C 54.5471,32.2144 50.0665,27.7339 50.0665,22.2131C 50.0665,16.6924 54.5471,12.2119 60.0678,12.2119 Z M 60.0678,15.2522C 56.2273,15.2522 53.1069,18.3726 53.1069,22.2131C 53.1069,26.0536 56.2273,29.1741 60.0678,29.1741C 63.9083,29.1741 67.0287,26.0536 67.0287,22.2131C 67.0287,18.3726 63.9083,15.2522 60.0678,15.2522 Z "/>
</svg>
