<?xml version="1.0" encoding="utf-8"?>
<!DOCTYPE svg PUBLIC "-//W3C//DTD SVG 1.1//EN" "http://www.w3.org/Graphics/SVG/1.1/DTD/svg11.dtd">
<svg xmlns="http://www.w3.org/2000/svg" xmlns:xlink="http://www.w3.org/1999/xlink" version="1.1" baseProfile="full" width="421.5" height="421.5" viewBox="0 0 421.50 421.50" enable-background="new 0 0 421.50 421.50" xml:space="preserve">
	<path fill="#0096FF" fill-opacity="1" fill-rule="evenodd" stroke-linejoin="round" d="M 210.75,4.00543e-005C 327.144,4.00543e-005 421.5,94.3561 421.5,210.75C 421.5,327.144 327.144,421.5 210.75,421.5C 94.356,421.5 -1.52588e-005,327.144 -1.52588e-005,210.75C -1.52588e-005,94.3561 94.356,4.00543e-005 210.75,4.00543e-005 Z M 293.143,349.763L 293.143,307.799L 292.218,307.799C 284.631,322.072 273.417,333.392 258.575,341.762C 243.734,350.131 226.995,354.315 208.36,354.315C 179.72,354.315 156.344,344.18 138.23,323.909C 120.117,303.638 111.06,275.65 111.06,239.945C 111.06,203.481 120.947,173.975 140.72,151.428C 160.493,128.881 186.145,117.608 217.678,117.608C 252.53,117.608 277.376,131.501 292.218,159.288L 293.143,159.288L 293.143,12.9103L 315.903,12.9103L 315.903,349.763L 293.143,349.763 Z M 293.143,211.423C 293.143,190.37 286.326,172.505 272.694,157.83C 259.061,143.154 240.723,135.816 217.678,135.816C 193.4,135.816 173.355,144.92 157.541,163.129C 141.727,181.337 133.82,206.349 133.82,238.167C 133.82,269.415 140.945,293.55 155.194,310.573C 169.443,327.596 187.781,336.107 210.21,336.107C 236.574,336.107 256.987,328.117 271.449,312.138C 285.912,296.158 293.143,276.669 293.143,253.672L 293.143,211.423 Z "/>
</svg>
